<!-- Generated by IcoMoon.io -->
<svg version="1.1" xmlns="http://www.w3.org/2000/svg" width="56" height="32" viewBox="0 0 56 32">
<symbol id="logo" viewBox="0 0 56 32" >
<title>HoBoLogo</title>
<path fill="#D2D8D3" d="M24.665 6.57c0.037 0.029 0.074 0.057 0.111 0.085 0.024 0.018 0.049 0.036 0.073 0.055 0.181 0.137 0.387 0.293 0.633 0.218l0.002-0.001c0.066-0.058 0.099-0.131 0.099-0.218-0.002-0.116-0.047-0.212-0.133-0.289-0.1-0.101-0.204-0.202-0.304-0.3-0.334-0.301-0.632-0.635-0.894-1.001-0.218-0.334-0.397-0.687-0.535-1.061-0.056-0.137-0.115-0.278-0.176-0.414-0.19-0.431-0.516-0.771-0.831-1.101-0.187-0.188-0.362-0.386-0.526-0.594-0.186-0.224-0.359-0.467-0.525-0.701-0.255-0.383-0.544-0.74-0.865-1.070-0.102-0.116-0.23-0.176-0.384-0.18h-0.006c-0.12-0.002-0.219 0.041-0.301 0.129-0.278 0.269-0.54 0.554-0.785 0.855-0.131 0.154-0.266 0.313-0.404 0.466-0.757 0.868-1.641 1.633-2.495 2.374-0.332 0.288-0.675 0.585-1.006 0.884-0.296 0.26-0.447 0.624-0.592 0.976-0.049 0.119-0.1 0.242-0.156 0.359-0.092 0.2-0.183 0.405-0.272 0.603-0.253 0.562-0.514 1.144-0.8 1.702-0.078 0.176-0.245 0.278-0.405 0.376-0.197 0.12-0.401 0.245-0.436 0.507-0.060 0.208-0.038 0.515 0.1 0.649 0.051 0.050 0.112 0.074 0.183 0.073 0.044-0.001 0.086-0.008 0.127-0.022 0.485-0.17 0.892-0.501 1.286-0.822 0.062-0.050 0.127-0.103 0.191-0.154 0.29-0.27 0.6-0.517 0.927-0.741 0.346-0.235 0.67-0.497 0.973-0.785l0.004-0.005-0.005-0.003c-0.163-0.1-0.34-0.157-0.531-0.174-0.108-0.014-0.214-0.037-0.318-0.068 0.174-0.305 0.389-0.576 0.645-0.815 0.032-0.033 0.064-0.065 0.095-0.098 0.518-0.495 1.069-0.972 1.602-1.434 0.484-0.418 0.983-0.851 1.458-1.296-0.284 0.68-0.579 1.183-0.929 1.58-0.228 0.239-0.216 0.554-0.204 0.858 0.023 0.214 0.004 0.423-0.057 0.629-0.217 0.318-0.466 0.621-0.707 0.915-0.349 0.402-0.662 0.829-0.939 1.284l-0.008 0.014 0.014-0.006c0.834-0.384 1.395-1.12 1.936-1.832 0.195-0.256 0.397-0.521 0.608-0.764 0.198-0.281 0.428-0.53 0.693-0.748s0.554-0.397 0.867-0.537c0.192 0.059 0.387 0.123 0.575 0.184 0.478 0.156 0.973 0.317 1.474 0.427l0.007 0.002-0.001-0.007c-0.055-0.335-0.131-0.671-0.203-0.997-0.057-0.253-0.116-0.515-0.164-0.774 0.235 0.33 0.453 0.671 0.654 1.023 0.138 0.234 0.281 0.475 0.433 0.706 0.292 0.438 0.717 0.765 1.128 1.081z"></path>
<path fill="#D2D8D3" d="M29.936 8.9c-0.309 0.761-0.746 1.47-1.168 2.155-0.369 0.574-0.704 1.167-1.004 1.78l-0.006 0.013 0.013-0.006c0.299-0.141 0.525-0.389 0.744-0.629 0.080-0.088 0.163-0.179 0.248-0.263 0.372-0.42 0.764-0.837 1.143-1.239 0.518-0.549 1.054-1.117 1.546-1.706l0.002-0.002-0.001-0.002c-0.032-0.273-0.076-0.548-0.118-0.813-0.055-0.348-0.112-0.708-0.144-1.065 0.778 0.354 1.422 0.928 2.046 1.483 0.192 0.171 0.391 0.349 0.591 0.516l0.010 0.009-0.002-0.014c-0.091-0.483-0.229-0.953-0.412-1.409-0.077-0.211-0.156-0.428-0.225-0.644-0.038-0.124-0.081-0.249-0.123-0.371-0.145-0.421-0.296-0.856-0.262-1.312 0.223 0.14 0.416 0.313 0.579 0.519 0.082 0.093 0.168 0.188 0.258 0.275 0.109 0.125 0.23 0.246 0.346 0.363 0.214 0.2 0.404 0.42 0.573 0.66 0.041 0.168 0.060 0.338 0.056 0.51-0.011 0.223 0.025 0.438 0.109 0.645l0.001 0.001c0.225 0.227 0.467 0.434 0.726 0.62 0.261 0.188 0.504 0.396 0.73 0.624 0.121 0.252 0.226 0.516 0.328 0.771 0.056 0.14 0.113 0.285 0.173 0.427-0.128-0.014-0.257-0.033-0.381-0.052-0.132-0.020-0.268-0.040-0.403-0.054l-0.013-0.002 0.009 0.010c0.169 0.182 0.349 0.352 0.54 0.511 0.098 0.085 0.199 0.174 0.296 0.263 0.045 0.038 0.090 0.080 0.134 0.119 0.187 0.169 0.38 0.344 0.633 0.408l0.008 0.002-0.002-0.009c-0.054-0.186-0.131-0.363-0.23-0.529-0.111-0.182-0.19-0.376-0.24-0.583 0.463 0.361 0.901 0.751 1.314 1.168l0.009 0.009v-0.012c0.001-0.113 0.001-0.228 0.002-0.338 0-0.107 0-0.218 0.001-0.327 0.218 0.147 0.428 0.314 0.632 0.476 0.334 0.285 0.694 0.532 1.081 0.741h0.002c0.040 0.003 0.077-0.005 0.111-0.027s0.058-0.051 0.072-0.088c0.017-0.056 0.017-0.111 0.001-0.167s-0.046-0.103-0.089-0.141c-0.397-0.453-0.809-0.884-1.267-1.36-0.199-0.187-0.426-0.33-0.681-0.427-0.278-0.128-0.565-0.259-0.755-0.521-0.524-0.686-1.007-1.4-1.448-2.141-0.57-0.92-1.161-1.871-1.911-2.683-0.315-0.332-0.636-0.67-0.947-0.996-0.559-0.587-1.138-1.195-1.703-1.796-0.086-0.084-0.17-0.175-0.251-0.263-0.157-0.183-0.332-0.348-0.523-0.495-0.062-0.053-0.133-0.074-0.214-0.065-0.175 0.025-0.318 0.224-0.424 0.369l-0.006 0.008c-0.515 0.753-1.065 1.458-1.679 2.235-0.23 0.294-0.454 0.601-0.67 0.899-0.437 0.631-0.916 1.227-1.437 1.79-0.419 0.456-0.873 0.876-1.361 1.258-0.566 0.468-1.151 0.951-1.601 1.555-0.18 0.263-0.311 0.548-0.394 0.855-0.073 0.257-0.176 0.501-0.309 0.733-0.045 0.074-0.090 0.148-0.134 0.222-0.315 0.525-0.64 1.068-1.068 1.519-0.284 0.301-0.667 0.464-1.038 0.622-0.069 0.030-0.141 0.060-0.21 0.091-0.298 0.113-0.456 0.388-0.609 0.654-0.030 0.053-0.062 0.108-0.094 0.16-0.297 0.52-0.645 1.020-0.981 1.503-0.244 0.351-0.497 0.714-0.727 1.081l-0.018 0.029 0.026-0.022c0.578-0.498 1.119-1.056 1.641-1.596 0.293-0.302 0.595-0.614 0.9-0.912 0.393-0.182 0.763-0.403 1.11-0.662 0.16-0.112 0.327-0.228 0.495-0.334 0.114-0.083 0.234-0.162 0.351-0.237 0.254-0.152 0.487-0.331 0.7-0.537l0.003-0.003-0.003-0.003c-0.131-0.17-0.271-0.331-0.423-0.483 0.113-0.282 0.325-0.505 0.53-0.719 0.057-0.061 0.117-0.123 0.173-0.186 0.863-0.915 1.84-1.952 2.823-2.951 0.043-0.042 0.085-0.086 0.126-0.129 0.155-0.185 0.34-0.33 0.557-0.435-0.065 0.382-0.246 0.73-0.421 1.068-0.187 0.36-0.38 0.733-0.431 1.147l-0.001 0.010 0.009-0.005c0.018-0.011 0.037-0.022 0.056-0.033 0.111-0.061 0.214-0.131 0.313-0.21 0.505-0.448 0.994-0.93 1.467-1.395 0.454-0.447 0.924-0.909 1.407-1.341-0.402 0.661-0.865 1.296-1.314 1.909-0.471 0.644-0.958 1.311-1.373 2.007l-0.002 0.002 0.001 0.003c0.022 0.040 0.045 0.079 0.072 0.116 0.084 0.124 0.179 0.266 0.065 0.398-0.618 0.941-1.314 1.85-1.987 2.729-0.254 0.332-0.517 0.675-0.772 1.015l0.007 0.006c0.652-0.676 1.314-1.365 1.954-2.031 1.357-1.414 2.759-2.875 4.156-4.295z"></path>
<path fill="#D2D8D3" d="M18.839 11.076l-0.002 0.009 0.009-0.003c0.239-0.090 0.41-0.28 0.575-0.464 0.042-0.048 0.086-0.097 0.131-0.143 0.123-0.14 0.251-0.281 0.376-0.416 0.361-0.393 0.734-0.8 1-1.275 0.105-0.194 0.193-0.396 0.262-0.606 0.068-0.203 0.151-0.399 0.251-0.587 0.218 0.183 0.425 0.379 0.621 0.585 0.335 0.34 0.681 0.692 1.117 0.915l0.009 0.005-0.002-0.010c-0.049-0.217-0.143-0.413-0.28-0.588-0.036-0.054-0.073-0.109-0.108-0.164-0.234-0.349-0.462-0.712-0.681-1.063-0.278-0.443-0.565-0.903-0.871-1.338-0.007-0.009-0.014-0.017-0.022-0.026-0.107-0.128-0.254-0.304-0.431-0.215-0.38 0.152-0.692 0.428-0.995 0.695-0.073 0.065-0.148 0.131-0.223 0.194v0.001c-1.001 0.902-1.925 1.912-2.819 2.888-0.286 0.312-0.581 0.634-0.875 0.948-0.103 0.123-0.214 0.243-0.321 0.36-0.289 0.315-0.587 0.641-0.774 1.035l-0.006 0.014 0.013-0.007c0.361-0.203 0.689-0.45 0.986-0.739 0.075-0.068 0.152-0.137 0.229-0.204 0.258-0.226 0.514-0.465 0.762-0.696 0.55-0.514 1.118-1.045 1.753-1.469-0.050 0.336-0.238 0.629-0.421 0.912-0.195 0.304-0.398 0.617-0.433 0.989l-0.001 0.010 0.008-0.005c0.47-0.259 0.876-0.62 1.269-0.97 0.318-0.298 0.657-0.57 1.016-0.817-0.136 0.359-0.314 0.695-0.533 1.010-0.243 0.384-0.495 0.781-0.593 1.236z"></path>
<path fill="#D2D8D3" d="M12.656 14.914c0.409-0.331 0.832-0.674 1.345-0.844l0.002-0.001 0.001-0.003c0.149-0.469 0.177-0.945 0.085-1.428-0.104-0.333-0.326-0.605-0.541-0.869-0.097-0.119-0.197-0.241-0.285-0.368-0.251-0.335-0.473-0.688-0.665-1.060-0.206-0.402-0.448-0.781-0.727-1.136-0.056-0.074-0.124-0.136-0.204-0.183s-0.167-0.078-0.259-0.091c-0.115-0.010-0.214 0.025-0.296 0.106-0.269 0.245-0.521 0.506-0.756 0.785-0.144 0.164-0.294 0.333-0.449 0.493-0.615 0.667-1.329 1.248-2.020 1.81-0.725 0.59-1.475 1.199-2.111 1.91-0.092 0.096-0.184 0.197-0.273 0.294-0.393 0.428-0.798 0.871-1.322 1.144-0.149 0.071-0.305 0.118-0.469 0.142-0.26 0.052-0.53 0.106-0.692 0.347-0.178 0.26-0.34 0.53-0.483 0.811-0.089 0.166-0.181 0.336-0.28 0.499-0.318 0.519-0.67 1.015-1.055 1.487-0.379 0.464-0.726 0.951-1.040 1.46l-0.016 0.027 0.023-0.021c0.458-0.395 0.888-0.833 1.304-1.257 0.175-0.178 0.356-0.362 0.535-0.54 0.069-0.066 0.139-0.139 0.206-0.208 0.278-0.289 0.565-0.589 0.98-0.643l0.004-0.001 0.001-0.004c0.092-0.522 0.511-0.81 0.918-1.089 0.123-0.084 0.249-0.171 0.363-0.263 0.18-0.124 0.358-0.259 0.529-0.391 0.312-0.254 0.644-0.479 0.997-0.672-0.015 0.372-0.162 0.723-0.304 1.063-0.083 0.189-0.156 0.382-0.218 0.579-0.072 0.296-0.297 0.497-0.514 0.69-0.072 0.065-0.147 0.131-0.215 0.2-0.201 0.194-0.411 0.386-0.614 0.573-0.471 0.416-0.916 0.859-1.334 1.328l-0.021 0.025 0.027-0.017c0.384-0.247 0.751-0.518 1.101-0.812 0.195-0.157 0.396-0.32 0.6-0.471 0.171-0.141 0.346-0.283 0.515-0.42 0.837-0.68 1.704-1.384 2.449-2.186l0.007-0.008-0.011-0.001c-0.089-0.003-0.18-0.003-0.269-0.004-0.174-0.001-0.354-0.003-0.53-0.018 0.108-0.298 0.322-0.538 0.529-0.771 0.033-0.038 0.066-0.075 0.099-0.112 0.635-0.652 1.302-1.27 2.001-1.853 0.415-0.359 0.845-0.729 1.252-1.11-0.209 0.606-0.471 1.188-0.787 1.747v0.001c-0.025 0.169-0.032 0.338-0.022 0.509 0.007 0.313 0.014 0.637-0.191 0.895-0.053 0.074-0.108 0.148-0.161 0.221-0.317 0.404-0.591 0.836-0.819 1.296l-0.007 0.016 0.015-0.010c0.438-0.314 0.841-0.669 1.208-1.063 0.145-0.145 0.295-0.296 0.447-0.439 0.348-0.38 0.815-0.603 1.267-0.818 0.181-0.086 0.368-0.176 0.545-0.274-0.221 0.377-0.463 0.74-0.725 1.089-0.695 0.956-1.658 1.668-2.589 2.356-0.261 0.192-0.53 0.392-0.789 0.593-0.489 0.375-0.999 0.741-1.491 1.096-0.709 0.51-1.443 1.038-2.129 1.601l0.006 0.009 0.014-0.009c2.635-1.701 5.36-3.459 7.889-5.403 0.141-0.105 0.282-0.219 0.418-0.329z"></path>
<path fill="#D2D8D3" d="M39.475 16.545c-0.187-0.124-0.38-0.253-0.569-0.382-0.070-0.048-0.144-0.097-0.215-0.144-0.382-0.253-0.777-0.515-1.003-0.926-0.035-0.062-0.070-0.127-0.104-0.19-0.19-0.351-0.387-0.715-0.735-0.934-0.31-0.176-0.635-0.321-0.973-0.436-0.428-0.16-0.871-0.325-1.233-0.62-0.298-0.361-0.447-0.808-0.591-1.239-0.14-0.42-0.285-0.854-0.566-1.21-0.419-0.514-1.092-0.667-1.584-0.704-0.317 0.003-0.533 0.253-0.723 0.473-0.036 0.041-0.070 0.081-0.105 0.119-0.401 0.493-0.801 0.999-1.188 1.489-0.337 0.427-0.686 0.868-1.033 1.297-0.192 0.203-0.211 0.476-0.23 0.741-0.005 0.067-0.010 0.137-0.018 0.203-0.651 0.511-1.292 1.056-1.911 1.582-0.213 0.181-0.433 0.368-0.651 0.552-0.106 0.099-0.22 0.194-0.33 0.285-0.255 0.195-0.481 0.419-0.679 0.672l-0.015 0.022 0.022-0.014c0.916-0.581 1.825-1.208 2.703-1.816 0.244-0.168 0.496-0.342 0.745-0.513 1.116-0.757 2.153-1.611 3.11-2.562 0.021-0.019 0.042-0.040 0.062-0.059 0.072-0.080 0.157-0.14 0.256-0.183 0.265 0.096 0.51 0.229 0.735 0.399 0.095 0.065 0.193 0.131 0.292 0.191 0.502 0.341 1.009 0.693 1.499 1.034 1.12 0.779 2.279 1.584 3.466 2.305 0.193 0.107 0.389 0.217 0.578 0.323 0.766 0.447 1.553 0.852 2.363 1.215l0.039 0.017-0.034-0.026c-0.448-0.336-0.922-0.652-1.381-0.958z"></path>
<path fill="#D2D8D3" d="M54.923 18.49c-0.286-0.253-0.597-0.483-0.899-0.706-0.159-0.117-0.322-0.238-0.48-0.36-0.058-0.042-0.117-0.085-0.174-0.127-0.463-0.339-0.943-0.69-1.537-0.705-0.459-0.019-0.8-0.326-1.128-0.623-0.028-0.025-0.056-0.050-0.084-0.076-0.061-0.056-0.124-0.109-0.191-0.159-0.159-0.124-0.324-0.251-0.376-0.458-0.112-0.372-0.422-0.596-0.722-0.812-0.107-0.077-0.218-0.157-0.316-0.242-0.517-0.388-0.976-0.835-1.377-1.341-0.601-0.693-1.336-1.26-2.046-1.809-0.335-0.258-0.682-0.526-1.009-0.803-0.29-0.255-0.561-0.329-0.785-0.213-0.22 0.144-0.42 0.313-0.6 0.505-0.198 0.215-0.423 0.397-0.676 0.546-0.153 0.066-0.31 0.121-0.472 0.165-0.269 0.080-0.548 0.162-0.77 0.352-0.333 0.277-0.548 0.656-0.756 1.023-0.084 0.148-0.17 0.301-0.263 0.444-0.288 0.438-0.614 0.846-0.978 1.223-0.101 0.112-0.206 0.227-0.306 0.342-0.017 0.020-0.034 0.041-0.051 0.061-0.142 0.14-0.238 0.306-0.288 0.499-0.003 0.048 0.008 0.092 0.033 0.132s0.060 0.070 0.104 0.088c0.048 0.022 0.099 0.029 0.151 0.019s0.097-0.032 0.134-0.069c0.298-0.261 0.592-0.538 0.875-0.805 0.322-0.305 0.656-0.619 0.999-0.913 0.057-0.060 0.127-0.097 0.207-0.112s0.159-0.005 0.234 0.029l0.003 0.001 0.002-0.002c0.282-0.245 0.561-0.506 0.829-0.757 0.464-0.451 0.951-0.874 1.463-1.269l0.035 0.027c0.104 0.075 0.202 0.158 0.294 0.248 0.689 0.752 1.603 1.735 2.56 2.669 0.095 0.089 0.19 0.182 0.282 0.271 0.37 0.36 0.753 0.731 1.203 1.004l0.015 0.009-0.007-0.015c-0.337-0.678-0.812-1.286-1.27-1.875-0.199-0.255-0.404-0.518-0.595-0.784 0.654 0.376 1.278 0.822 1.882 1.254 0.129 0.093 0.264 0.189 0.396 0.282 0.067 0.056 0.143 0.108 0.215 0.159 0.184 0.128 0.376 0.261 0.462 0.478-0.066 0.016-0.133 0.031-0.199 0.047-0.112 0.026-0.227 0.053-0.34 0.081l-0.009 0.002 0.007 0.006c0.435 0.427 0.954 0.764 1.456 1.090 0.1 0.065 0.203 0.132 0.304 0.199 0.080 0.049 0.16 0.1 0.239 0.149 0.364 0.245 0.749 0.451 1.154 0.62 0.147 0.074 0.297 0.026 0.442-0.020 0.159-0.052 0.31-0.1 0.461-0.001 0.179 0.085 0.361 0.175 0.536 0.261 0.557 0.273 1.132 0.554 1.72 0.779l0.026 0.010z"></path>
<path fill="#D2D8D3" d="M42.075 14.426c0.385-0.393 0.784-0.8 1.078-1.274l0.015-0.025-0.023 0.019c-0.357 0.298-0.696 0.616-1.015 0.954-0.142 0.144-0.289 0.294-0.436 0.437-0.104 0.109-0.211 0.219-0.314 0.325-0.42 0.43-0.855 0.874-1.168 1.398l-0.017 0.027 0.025-0.021c0.334-0.294 0.652-0.615 0.96-0.926 0.145-0.147 0.294-0.298 0.444-0.444 0.146-0.159 0.301-0.317 0.451-0.47z"></path>
<path fill="#D2D8D3" d="M34.789 15.434c-0.28-0.241-0.569-0.49-0.844-0.745-0.166-0.178-0.293-0.38-0.381-0.606-0.119-0.255-0.242-0.518-0.483-0.687-0.342-0.161-0.632 0.082-0.889 0.296-0.074 0.062-0.145 0.121-0.215 0.17v0.001c-0.31 0.228-0.608 0.485-0.897 0.732-0.567 0.487-1.154 0.99-1.851 1.306-0.629 0.289-1.187 0.68-1.673 1.172-0.188 0.198-0.363 0.407-0.526 0.626-0.131 0.17-0.267 0.346-0.414 0.507-0.33 0.363-0.778 0.571-1.211 0.773-0.489 0.227-0.995 0.462-1.331 0.921l-0.014 0.019 0.021-0.011c0.131-0.077 0.258-0.161 0.38-0.252 0.133-0.1 0.272-0.191 0.417-0.272 0.188-0.099 0.385-0.188 0.576-0.275 0.349-0.146 0.682-0.322 0.998-0.529 0.333-0.247 0.647-0.515 0.942-0.804 0.389-0.364 0.792-0.741 1.267-1.010 0.195-0.112 0.399-0.215 0.597-0.314 0.23-0.116 0.468-0.235 0.692-0.37 0.49-0.298 0.968-0.631 1.431-0.954 0.273-0.19 0.554-0.387 0.836-0.574 0.033-0.027 0.070-0.048 0.111-0.063s0.082-0.023 0.125-0.024 0.085 0.005 0.127 0.017c0.041 0.013 0.079 0.032 0.113 0.057 0.59 0.342 1.167 0.729 1.724 1.103 0.594 0.399 1.208 0.811 1.841 1.171l0.029 0.017-0.023-0.025c-0.466-0.485-0.958-0.942-1.475-1.371z"></path>
<path fill="#D2D8D3" d="M18.128 18.192c-0.131-0.112-0.267-0.222-0.399-0.329-0.399-0.324-0.812-0.657-1.132-1.072-0.266-0.352-0.424-0.769-0.577-1.171-0.101-0.284-0.22-0.56-0.357-0.828-0.235-0.482-0.816-0.617-1.296-0.68-0.314-0.070-0.557 0.164-0.733 0.376-0.3 0.345-0.613 0.687-0.915 1.019-0.327 0.358-0.666 0.729-0.987 1.102-0.123 0.131-0.132 0.309-0.14 0.481-0.003 0.051-0.005 0.104-0.011 0.154-0.196 0.188-0.407 0.368-0.612 0.543-0.406 0.346-0.825 0.704-1.147 1.143l-0.015 0.020 0.021-0.013c1.435-0.849 2.783-1.818 4.045-2.906 0.028-0.019 0.055-0.041 0.081-0.064 0.089-0.076 0.19-0.161 0.297-0.074 0.477 0.275 0.932 0.581 1.367 0.918 0.201 0.148 0.408 0.302 0.616 0.447 1.54 1.113 2.749 1.93 3.92 2.649l0.006-0.008c-0.399-0.363-0.823-0.71-1.233-1.044-0.263-0.215-0.536-0.438-0.799-0.663z"></path>
<path fill="#D2D8D3" d="M43.226 15.164c-0.16-0.107-0.289 0.021-0.403 0.133-0.029 0.029-0.056 0.056-0.083 0.077l-0.001 0.001c-0.113 0.12-0.231 0.24-0.345 0.356-0.319 0.311-0.616 0.643-0.889 0.995l-0.012 0.016 0.018-0.009c0.289-0.145 0.564-0.312 0.827-0.5 0.283-0.206 0.584-0.384 0.9-0.533 0.29 0.084 0.568 0.196 0.835 0.337 0.191 0.096 0.387 0.183 0.587 0.26l0.025 0.009-0.020-0.018c-0.445-0.42-0.926-0.795-1.441-1.125z"></path>
<path fill="#D2D8D3" d="M16.258 18.314c-0.235-0.19-0.478-0.385-0.699-0.595-0.103-0.125-0.189-0.262-0.258-0.408-0.085-0.195-0.206-0.364-0.363-0.507-0.204-0.139-0.437 0.007-0.527 0.076-0.371 0.258-0.727 0.549-1.071 0.83-0.249 0.204-0.507 0.415-0.77 0.612-0.201 0.144-0.414 0.27-0.636 0.377-0.153 0.079-0.311 0.161-0.459 0.254-0.574 0.347-1.003 0.878-1.418 1.392-0.030 0.037-0.060 0.075-0.091 0.112l-0.019 0.023 0.025-0.015c0.266-0.174 0.518-0.366 0.755-0.577 0.322-0.274 0.655-0.557 1.053-0.737 0.77-0.357 1.487-0.8 2.151-1.329 0.036-0.023 0.072-0.050 0.111-0.078 0.16-0.119 0.341-0.253 0.528-0.128 0.419 0.242 0.832 0.51 1.232 0.769 0.492 0.32 1.002 0.651 1.528 0.935l0.022 0.012-0.016-0.020c-0.324-0.371-0.683-0.704-1.077-1z"></path>
<path fill="#0f0" d="M12.964 19.114h-1.865v-3.879h-3.636v3.879h-1.865v-9.052h1.865v3.668h3.636v-3.668h1.865z"></path>
<path fill="#0f0" d="M14.194 15.689c0-0.667 0.128-1.262 0.385-1.785 0.258-0.522 0.628-0.926 1.111-1.212s1.043-0.428 1.682-0.428c0.907 0 1.647 0.278 2.22 0.834 0.574 0.554 0.895 1.308 0.962 2.261l0.011 0.46c0 1.033-0.288 1.86-0.864 2.483s-1.349 0.935-2.318 0.935c-0.97 0-1.745-0.31-2.323-0.932-0.577-0.621-0.866-1.467-0.866-2.536zM15.99 15.819c0 0.639 0.12 1.127 0.36 1.464 0.241 0.338 0.585 0.506 1.033 0.506 0.435 0 0.775-0.166 1.019-0.499 0.244-0.334 0.367-0.868 0.367-1.601 0-0.626-0.123-1.111-0.367-1.455s-0.588-0.515-1.031-0.515c-0.44 0-0.781 0.171-1.022 0.513-0.24 0.341-0.36 0.87-0.36 1.588z"></path>
<path fill="#757575" d="M37.311 16.414c-0.933-0.1-2.967-0.038-3.38 0.168-0.168 0.084-0.199 0.574 0.038 0.543 0.421-0.053 1.002-0.122 1.613-0.191-0.199 0.542-0.619 1.965-0.665 2.11-0.26 0.757-0.482 1.537-0.604 2.256-0.030 0.183 0.383 0.375 0.42 0.176 0.153-0.81 0.818-2.791 1.033-3.441 0.115-0.344 0.26-0.749 0.443-1.17l1.522-0.168c0.742-0.077-0.061-0.245-0.42-0.283z"></path>
<path fill="#757575" d="M36.569 21.399c0.084 0 0.229-0.337 0.298-0.513 0.077-0.183 0.191-0.405 0.291-0.596 0.115-0.222 0.451-0.643 0.635-0.757 0.137 0.321 0.267 0.466 0.528 0.466 0.123 0 0.29-0.199 0.237-0.237-0.199-0.168-0.267-0.283-0.36-0.558-0.076-0.237-0.29-0.314-0.451-0.176-0.276 0.237-0.574 0.589-0.773 0.963 0.153-0.397 0.253-0.703 0.276-0.849 0.015-0.123 0.015-0.199-0.329-0.329-0.1-0.038-0.253 0.061-0.574 1.445-0.046 0.199-0.206 0.765-0.206 0.903 0 0.13 0.053 0.237 0.428 0.237z"></path>
<path fill="#757575" d="M40.728 21.46c0.528-0.053 1.093-1.101 0.864-0.918-0.107 0.054-0.604 0.497-0.986 0.527-0.199 0.015-0.252-0.115-0.252-0.283 0-0.428 0.283-1.131 0.489-1.506 0.053-0.099-0.023-0.214-0.168-0.283-0.076-0.046-0.267-0.145-0.359 0-0.42-0.29-0.956 0-1.323 0.405-0.627 0.673-1.055 1.774-0.229 1.866 0.267 0.023 0.65-0.161 1.132-0.681 0.046 0.574 0.389 0.918 0.833 0.872zM38.794 20.757c0.313-0.795 1.070-1.537 1.285-1.338 0 0.428-1.438 1.835-1.285 1.338z"></path>
<path fill="#757575" d="M42.128 21.529c0.267 0 0.726-0.903 0.856-1.178 0.076-0.176 0.528-1.048 0.612-1.192 0.069-0.115 0.16-0.168 0.16-0.253 0-0.069-0.137-0.252-0.252-0.252s-0.207 0.145-0.298 0.267c-0.115 0.16-0.734 1.223-1.002 1.667-0.015-0.26-0.015-0.505-0.015-0.757v-0.543c0-0.421-0.046-0.474-0.382-0.52-0.046-0.008-0.077-0.008-0.107-0.008-0.084 0-0.107 0.038-0.107 0.123 0 0.046 0 0.092 0.007 0.153 0.031 0.321 0.061 0.635 0.069 0.956 0.015 0.359 0.030 1.101 0.137 1.323 0.069 0.145 0.26 0.214 0.321 0.214z"></path>
<path fill="#757575" d="M44.704 21.414c0.413 0 0.91-0.267 1.17-0.573 0.222-0.26 0.222-0.527 0.176-0.482-0.497 0.497-1.040 0.673-1.422 0.673-0.145 0-0.26-0.031-0.321-0.1-0.122-0.137-0.115-0.359-0.046-0.589 0.13 0.084 0.313 0.13 0.451 0.13 0.038 0 0.069 0 0.099-0.007 0.398-0.084 0.666-0.428 0.765-0.75 0.046-0.13 0.061-0.252 0.061-0.359 0-0.046 0-0.084-0.007-0.13-0.023-0.13-0.069-0.214-0.191-0.283-0.076-0.046-0.16-0.069-0.245-0.069-0.543 0-1.445 0.788-1.445 1.628 0 0.245 0.023 0.444 0.275 0.658 0.168 0.137 0.436 0.252 0.68 0.252zM44.437 20.022c0.214-0.39 0.788-0.841 0.841-0.742 0.061 0.107-0.39 0.558-0.467 0.612-0.092 0.084-0.237 0.199-0.375 0.13z"></path>
<path fill="#757575" d="M46.96 21.468c0.313 0 0.65-0.245 0.841-0.436 0.137-0.138 0.26-0.421 0.237-0.505-0.030-0.107-0.084 0-0.336 0.214-0.184 0.161-0.528 0.375-0.834 0.375-0.405 0-0.42-0.39-0.42-0.528 0.466-0.329 0.91-1.032 1.070-1.277 0.298-0.444 0.543-0.918 0.75-1.407 0.16-0.382 0.229-0.78 0.222-1.139-0.008-0.291-0.344-0.451-0.597-0.451-0.046 0-0.092 0-0.13 0.015-0.245 0.084-0.352 0.237-0.482 0.428-0.252 0.367-0.413 0.65-0.604 1.071-0.168 0.367-0.329 0.772-0.444 1.147-0.137 0.444-0.283 0.956-0.283 1.4 0 0.382 0.038 0.742 0.36 0.932 0.229 0.138 0.489 0.161 0.65 0.161zM46.471 20.061c0.092-0.413 0.23-0.803 0.367-1.124 0.352-0.849 1.032-2.203 1.216-2.203 0.030 0 0.046 0.031 0.046 0.1 0 0.023 0 0.053-0.008 0.084-0.069 0.596-0.359 1.116-0.581 1.598-0.138 0.298-0.344 0.635-0.535 0.903-0.122 0.176-0.275 0.382-0.505 0.642z"></path>
<path fill="#000" d="M20.878 19.114v-9.052h3.171c1.098 0 1.93 0.211 2.497 0.632 0.568 0.42 0.852 1.037 0.852 1.849 0 0.443-0.114 0.834-0.341 1.173-0.228 0.338-0.545 0.585-0.951 0.742 0.464 0.116 0.83 0.351 1.097 0.703 0.267 0.352 0.401 0.782 0.401 1.292 0 0.869-0.278 1.528-0.834 1.977-0.556 0.448-1.347 0.675-2.373 0.683zM22.743 15.173v2.442h1.597c0.44 0 0.782-0.104 1.029-0.314 0.247-0.209 0.371-0.498 0.371-0.866 0-0.829-0.43-1.25-1.288-1.262zM22.743 13.854h1.379c0.94-0.015 1.411-0.39 1.411-1.125 0-0.409-0.119-0.704-0.357-0.884s-0.614-0.27-1.127-0.27h-1.306z"></path>
<path fill="#000" d="M32.779 19.114c-0.082-0.162-0.142-0.363-0.179-0.603-0.435 0.485-1.001 0.726-1.698 0.726-0.659 0-1.204-0.19-1.638-0.57-0.432-0.381-0.648-0.863-0.648-1.443 0-0.713 0.263-1.26 0.79-1.64 0.528-0.381 1.292-0.575 2.291-0.58h0.827v-0.385c0-0.31-0.080-0.558-0.241-0.745-0.159-0.186-0.41-0.28-0.754-0.28-0.302 0-0.54 0.073-0.712 0.218-0.171 0.144-0.257 0.342-0.257 0.596h-1.796c0-0.389 0.12-0.75 0.36-1.081s0.58-0.591 1.019-0.779c0.44-0.189 0.933-0.284 1.48-0.284 0.828 0 1.485 0.208 1.973 0.625 0.487 0.416 0.731 1.001 0.731 1.755v2.916c0.005 0.639 0.094 1.121 0.268 1.448v0.105zM31.295 17.865c0.266 0 0.51-0.058 0.733-0.176 0.224-0.119 0.39-0.278 0.497-0.477v-1.157h-0.671c-0.9 0-1.379 0.311-1.436 0.932l-0.005 0.105c0 0.224 0.078 0.41 0.236 0.554s0.372 0.218 0.646 0.218z"></path>
</svg>
