<svg xmlns="http://www.w3.org/2000/svg" xmlns:xlink="http://www.w3.org/1999/xlink" width="512" zoomAndPan="magnify" viewBox="0 0 384 218.249992" height="291" preserveAspectRatio="xMidYMid meet" version="1.0"><defs><filter x="0%" y="0%" width="100%" height="100%" id="908586fefd"><feColorMatrix values="0 0 0 0 1 0 0 0 0 1 0 0 0 0 1 0 0 0 1 0" color-interpolation-filters="sRGB"/></filter><g/><clipPath id="a0c4e8dacf"><path d="M 0.65625 0 L 375 0 L 375 142 L 0.65625 142 Z M 0.65625 0 " clip-rule="nonzero"/></clipPath><mask id="5cc00c442c"><g filter="url(#908586fefd)"><rect x="-38.4" width="460.8" fill="#000000" y="-21.824999" height="261.89999" fill-opacity="0.41"/></g></mask><clipPath id="9e96805d5b"><path d="M 0.898438 60 L 97 60 L 97 139.769531 L 0.898438 139.769531 Z M 0.898438 60 " clip-rule="nonzero"/></clipPath><clipPath id="e8232eb699"><path d="M 263 68 L 374.972656 68 L 374.972656 127 L 263 127 Z M 263 68 " clip-rule="nonzero"/></clipPath><clipPath id="2b2eb508f3"><path d="M 67 114 L 119 114 L 119 139.769531 L 67 139.769531 Z M 67 114 " clip-rule="nonzero"/></clipPath><clipPath id="7d2fe67248"><rect x="0" width="375" y="0" height="142"/></clipPath></defs><g clip-path="url(#a0c4e8dacf)"><g mask="url(#5cc00c442c)"><g><g clip-path="url(#7d2fe67248)"><path fill="#98a49a" d="M 168.222656 44.8125 C 168.476562 45.007812 168.730469 45.199219 168.980469 45.394531 C 169.144531 45.515625 169.3125 45.640625 169.480469 45.769531 C 170.714844 46.707031 172.117188 47.769531 173.796875 47.257812 L 173.8125 47.253906 C 174.261719 46.859375 174.488281 46.363281 174.484375 45.765625 C 174.46875 44.976562 174.164062 44.320312 173.574219 43.796875 C 172.894531 43.109375 172.183594 42.421875 171.5 41.753906 C 169.222656 39.699219 167.191406 37.421875 165.402344 34.929688 C 163.914062 32.652344 162.695312 30.242188 161.753906 27.691406 C 161.371094 26.757812 160.972656 25.796875 160.554688 24.867188 C 159.257812 21.929688 157.035156 19.605469 154.886719 17.359375 C 153.613281 16.078125 152.417969 14.726562 151.296875 13.308594 C 150.027344 11.777344 148.851562 10.125 147.71875 8.527344 C 145.976562 5.914062 144.011719 3.480469 141.820312 1.230469 C 141.125 0.441406 140.253906 0.03125 139.203125 0 L 139.160156 0 C 138.34375 -0.0117188 137.664062 0.28125 137.109375 0.878906 C 135.210938 2.714844 133.425781 4.65625 131.757812 6.707031 C 130.863281 7.757812 129.941406 8.84375 129 9.882812 C 123.839844 15.800781 117.808594 21.023438 111.980469 26.074219 C 109.714844 28.039062 107.375 30.066406 105.121094 32.105469 C 103.101562 33.878906 102.074219 36.359375 101.082031 38.761719 C 100.746094 39.570312 100.398438 40.410156 100.019531 41.207031 C 99.394531 42.574219 98.769531 43.96875 98.164062 45.316406 C 96.441406 49.152344 94.660156 53.117188 92.707031 56.925781 C 92.171875 58.128906 91.035156 58.824219 89.941406 59.492188 C 88.597656 60.3125 87.207031 61.160156 86.96875 62.949219 C 86.5625 64.367188 86.710938 66.464844 87.652344 67.378906 C 88 67.71875 88.417969 67.882812 88.902344 67.875 C 89.199219 67.871094 89.488281 67.820312 89.769531 67.726562 C 93.074219 66.570312 95.851562 64.308594 98.539062 62.117188 C 98.964844 61.773438 99.402344 61.414062 99.839844 61.066406 C 101.820312 59.222656 103.929688 57.539062 106.164062 56.011719 C 108.523438 54.410156 110.734375 52.625 112.800781 50.65625 L 112.828125 50.625 L 112.792969 50.601562 C 111.679688 49.921875 110.472656 49.527344 109.171875 49.417969 C 108.4375 49.320312 107.714844 49.164062 107.003906 48.953125 C 108.1875 46.875 109.65625 45.023438 111.40625 43.394531 C 111.625 43.171875 111.839844 42.949219 112.054688 42.726562 C 115.589844 39.347656 119.347656 36.097656 122.980469 32.949219 C 126.28125 30.097656 129.6875 27.148438 132.921875 24.109375 C 130.988281 28.75 128.972656 32.175781 126.585938 34.886719 C 125.03125 36.519531 125.113281 38.664062 125.191406 40.738281 C 125.351562 42.195312 125.21875 43.625 124.800781 45.027344 C 123.320312 47.199219 121.621094 49.265625 119.980469 51.265625 C 117.597656 54.003906 115.464844 56.921875 113.578125 60.019531 L 113.523438 60.113281 L 113.621094 60.070312 C 119.308594 57.449219 123.132812 52.429688 126.828125 47.574219 C 128.160156 45.828125 129.535156 44.019531 130.972656 42.363281 C 132.320312 40.449219 133.894531 38.75 135.699219 37.261719 C 137.507812 35.773438 139.476562 34.550781 141.613281 33.597656 C 142.921875 34 144.25 34.433594 145.535156 34.851562 C 148.796875 35.917969 152.171875 37.015625 155.589844 37.761719 L 155.636719 37.773438 L 155.628906 37.722656 C 155.253906 35.4375 154.738281 33.144531 154.242188 30.925781 C 153.855469 29.199219 153.453125 27.414062 153.121094 25.644531 C 154.726562 27.894531 156.210938 30.222656 157.578125 32.621094 C 158.519531 34.214844 159.496094 35.863281 160.53125 37.4375 C 162.523438 40.425781 165.421875 42.65625 168.222656 44.8125 Z M 168.222656 44.8125 " fill-opacity="1" fill-rule="nonzero"/><path fill="#98a49a" d="M 204.175781 60.699219 C 202.066406 65.886719 199.089844 70.722656 196.210938 75.398438 C 193.695312 79.3125 191.410156 83.359375 189.363281 87.535156 L 189.320312 87.621094 L 189.410156 87.582031 C 191.449219 86.617188 192.992188 84.925781 194.484375 83.292969 C 195.03125 82.691406 195.597656 82.074219 196.175781 81.5 C 198.714844 78.632812 201.386719 75.792969 203.972656 73.050781 C 207.507812 69.304688 211.160156 65.429688 214.515625 61.414062 L 214.527344 61.402344 L 214.523438 61.386719 C 214.308594 59.527344 214.007812 57.652344 213.71875 55.839844 C 213.34375 53.464844 212.953125 51.011719 212.738281 48.574219 C 218.042969 50.988281 222.4375 54.90625 226.691406 58.691406 C 228.003906 59.859375 229.359375 61.070312 230.722656 62.210938 L 230.792969 62.273438 L 230.777344 62.179688 C 230.15625 58.882812 229.21875 55.679688 227.964844 52.570312 C 227.441406 51.132812 226.898438 49.648438 226.429688 48.175781 C 226.171875 47.332031 225.875 46.476562 225.589844 45.648438 C 224.597656 42.777344 223.570312 39.808594 223.804688 36.699219 C 225.324219 37.652344 226.640625 38.832031 227.753906 40.238281 C 228.316406 40.871094 228.898438 41.523438 229.511719 42.113281 C 230.257812 42.96875 231.078125 43.792969 231.871094 44.589844 C 233.328125 45.957031 234.628906 47.457031 235.78125 49.089844 C 236.0625 50.234375 236.1875 51.394531 236.160156 52.570312 C 236.082031 54.089844 236.328125 55.558594 236.902344 56.96875 L 236.910156 56.976562 C 238.445312 58.523438 240.097656 59.933594 241.863281 61.207031 C 243.640625 62.488281 245.300781 63.90625 246.839844 65.460938 C 247.664062 67.179688 248.378906 68.980469 249.074219 70.722656 C 249.453125 71.679688 249.847656 72.667969 250.253906 73.632812 C 249.382812 73.535156 248.503906 73.40625 247.65625 73.277344 C 246.757812 73.140625 245.828125 73.003906 244.910156 72.90625 L 244.820312 72.894531 L 244.882812 72.960938 C 246.035156 74.203125 247.265625 75.363281 248.566406 76.445312 C 249.234375 77.027344 249.925781 77.628906 250.585938 78.242188 C 250.890625 78.503906 251.199219 78.785156 251.5 79.054688 C 252.773438 80.207031 254.089844 81.398438 255.816406 81.839844 L 255.871094 81.855469 L 255.859375 81.796875 C 255.492188 80.527344 254.96875 79.324219 254.292969 78.1875 C 253.539062 76.945312 252.996094 75.621094 252.65625 74.210938 C 255.816406 76.675781 258.804688 79.332031 261.617188 82.179688 L 261.679688 82.238281 L 261.679688 82.15625 C 261.6875 81.382812 261.6875 80.601562 261.691406 79.851562 C 261.691406 79.121094 261.691406 78.363281 261.699219 77.621094 C 263.1875 78.625 264.621094 79.765625 266.007812 80.867188 C 268.285156 82.8125 270.742188 84.496094 273.378906 85.917969 L 273.394531 85.917969 C 273.667969 85.941406 273.917969 85.882812 274.152344 85.734375 C 274.382812 85.589844 274.546875 85.386719 274.644531 85.132812 C 274.757812 84.753906 274.761719 84.375 274.652344 83.992188 C 274.542969 83.613281 274.339844 83.292969 274.042969 83.03125 C 271.335938 79.941406 268.527344 77 265.398438 73.753906 C 264.042969 72.476562 262.492188 71.503906 260.753906 70.839844 C 258.859375 69.96875 256.902344 69.070312 255.605469 67.285156 C 252.03125 62.609375 248.738281 57.738281 245.726562 52.679688 C 241.835938 46.40625 237.808594 39.921875 232.691406 34.382812 C 230.542969 32.117188 228.351562 29.816406 226.230469 27.589844 C 222.417969 23.585938 218.46875 19.441406 214.617188 15.339844 C 214.03125 14.765625 213.457031 14.144531 212.90625 13.546875 C 211.832031 12.296875 210.644531 11.171875 209.339844 10.167969 C 208.917969 9.808594 208.429688 9.660156 207.878906 9.726562 C 206.6875 9.898438 205.707031 11.257812 204.988281 12.246094 L 204.949219 12.300781 C 201.4375 17.4375 197.6875 22.246094 193.5 27.546875 C 191.933594 29.554688 190.40625 31.648438 188.933594 33.675781 C 185.953125 37.976562 182.6875 42.046875 179.132812 45.886719 C 176.273438 49 173.179688 51.859375 169.847656 54.464844 C 165.988281 57.65625 161.996094 60.953125 158.925781 65.070312 C 157.699219 66.863281 156.804688 68.804688 156.238281 70.902344 C 155.738281 72.652344 155.035156 74.320312 154.132812 75.902344 C 153.824219 76.40625 153.519531 76.910156 153.21875 77.417969 C 151.070312 80.996094 148.851562 84.699219 145.9375 87.777344 C 144.003906 89.832031 141.386719 90.945312 138.859375 92.019531 C 138.386719 92.222656 137.898438 92.429688 137.429688 92.636719 C 135.394531 93.410156 134.316406 95.285156 133.273438 97.097656 C 133.066406 97.460938 132.847656 97.835938 132.632812 98.1875 C 130.605469 101.734375 128.234375 105.144531 125.941406 108.441406 C 124.277344 110.835938 122.554688 113.308594 120.980469 115.816406 L 120.855469 116.011719 L 121.03125 115.859375 C 124.972656 112.464844 128.660156 108.65625 132.226562 104.976562 C 134.222656 102.917969 136.285156 100.789062 138.367188 98.757812 C 141.050781 97.519531 143.574219 96.011719 145.9375 94.242188 C 147.03125 93.476562 148.167969 92.6875 149.3125 91.960938 C 150.089844 91.394531 150.910156 90.859375 151.707031 90.34375 C 153.4375 89.304688 155.03125 88.085938 156.480469 86.683594 L 156.503906 86.660156 L 156.484375 86.636719 C 155.59375 85.476562 154.632812 84.378906 153.601562 83.34375 C 154.375 81.417969 155.820312 79.902344 157.21875 78.4375 C 157.609375 78.023438 158.015625 77.597656 158.398438 77.167969 C 164.28125 70.929688 170.949219 63.855469 177.652344 57.039062 C 177.945312 56.753906 178.234375 56.453125 178.511719 56.160156 C 179.566406 54.898438 180.832031 53.910156 182.3125 53.195312 C 181.867188 55.800781 180.636719 58.175781 179.441406 60.476562 C 178.167969 62.933594 176.847656 65.476562 176.503906 68.296875 L 176.496094 68.367188 L 176.554688 68.332031 C 176.679688 68.257812 176.808594 68.179688 176.933594 68.105469 C 177.6875 67.6875 178.394531 67.210938 179.066406 66.671875 C 182.507812 63.613281 185.84375 60.332031 189.074219 57.160156 C 192.171875 54.113281 195.375 50.960938 198.667969 48.015625 C 195.925781 52.523438 192.765625 56.851562 189.707031 61.035156 C 186.496094 65.429688 183.171875 69.976562 180.34375 74.726562 L 180.332031 74.742188 L 180.339844 74.761719 C 180.488281 75.035156 180.648438 75.300781 180.828125 75.554688 C 181.402344 76.402344 182.046875 77.367188 181.273438 78.269531 C 177.058594 84.6875 172.3125 90.886719 167.722656 96.878906 C 165.988281 99.144531 164.195312 101.484375 162.457031 103.804688 L 162.507812 103.847656 C 166.957031 99.238281 171.46875 94.539062 175.832031 89.992188 C 185.085938 80.351562 194.652344 70.386719 204.175781 60.699219 Z M 204.175781 60.699219 " fill-opacity="1" fill-rule="nonzero"/><path fill="#98a49a" d="M 128.488281 75.539062 L 128.476562 75.601562 L 128.535156 75.582031 C 130.167969 74.96875 131.332031 73.671875 132.457031 72.414062 C 132.746094 72.089844 133.046875 71.753906 133.347656 71.4375 C 134.183594 70.480469 135.058594 69.523438 135.910156 68.601562 C 138.371094 65.917969 140.917969 63.148438 142.730469 59.90625 C 143.449219 58.582031 144.046875 57.203125 144.519531 55.773438 C 144.980469 54.390625 145.550781 53.054688 146.234375 51.769531 C 147.71875 53.019531 149.132812 54.351562 150.46875 55.761719 C 152.753906 58.082031 155.113281 60.480469 158.089844 62 L 158.152344 62.03125 L 158.140625 61.964844 C 157.804688 60.484375 157.167969 59.148438 156.230469 57.957031 C 155.984375 57.589844 155.730469 57.214844 155.496094 56.835938 C 153.898438 54.457031 152.347656 51.980469 150.851562 49.585938 C 148.957031 46.5625 147 43.429688 144.914062 40.457031 C 144.867188 40.398438 144.816406 40.339844 144.765625 40.28125 C 144.035156 39.40625 143.035156 38.210938 141.828125 38.8125 C 139.238281 39.847656 137.105469 41.734375 135.042969 43.554688 C 134.546875 43.996094 134.03125 44.449219 133.523438 44.878906 L 133.523438 44.882812 C 126.699219 51.035156 120.394531 57.921875 114.296875 64.582031 C 112.347656 66.707031 110.335938 68.90625 108.332031 71.050781 C 107.632812 71.886719 106.875 72.707031 106.144531 73.503906 C 104.175781 75.652344 102.140625 77.875 100.867188 80.5625 L 100.824219 80.65625 L 100.914062 80.609375 C 103.375 79.222656 105.613281 77.539062 107.636719 75.566406 C 108.148438 75.105469 108.675781 74.632812 109.199219 74.175781 C 110.960938 72.636719 112.707031 71.003906 114.394531 69.425781 C 118.144531 65.921875 122.019531 62.296875 126.351562 59.410156 C 126.011719 61.703125 124.726562 63.699219 123.480469 65.628906 C 122.148438 67.699219 120.765625 69.839844 120.527344 72.371094 L 120.523438 72.4375 L 120.578125 72.40625 C 123.785156 70.640625 126.554688 68.175781 129.234375 65.792969 C 131.40625 63.761719 133.71875 61.90625 136.164062 60.21875 C 135.234375 62.664062 134.023438 64.960938 132.53125 67.109375 C 130.871094 69.726562 129.152344 72.433594 128.488281 75.539062 Z M 128.488281 75.539062 " fill-opacity="1" fill-rule="nonzero"/><g clip-path="url(#9e96805d5b)"><path fill="#98a49a" d="M 86.320312 101.71875 C 89.109375 99.460938 91.992188 97.125 95.492188 95.964844 L 95.507812 95.960938 L 95.515625 95.941406 C 96.53125 92.746094 96.722656 89.496094 96.09375 86.203125 C 95.382812 83.929688 93.867188 82.074219 92.402344 80.277344 C 91.742188 79.46875 91.058594 78.632812 90.460938 77.769531 C 88.75 75.484375 87.238281 73.074219 85.925781 70.539062 C 84.519531 67.796875 82.867188 65.214844 80.964844 62.789062 C 80.582031 62.28125 80.117188 61.863281 79.570312 61.542969 C 79.023438 61.21875 78.433594 61.011719 77.804688 60.925781 C 77.019531 60.855469 76.347656 61.097656 75.785156 61.648438 C 73.949219 63.316406 72.230469 65.101562 70.628906 67 C 69.644531 68.117188 68.621094 69.273438 67.566406 70.359375 C 63.371094 74.910156 58.5 78.871094 53.789062 82.703125 C 48.84375 86.726562 43.730469 90.882812 39.390625 95.730469 C 38.765625 96.386719 38.136719 97.074219 37.527344 97.738281 C 34.847656 100.65625 32.082031 103.675781 28.507812 105.539062 C 27.488281 106.023438 26.425781 106.34375 25.3125 106.507812 C 23.539062 106.863281 21.699219 107.230469 20.59375 108.871094 C 19.378906 110.644531 18.277344 112.488281 17.296875 114.402344 C 16.691406 115.53125 16.0625 116.695312 15.390625 117.808594 C 13.21875 121.351562 10.820312 124.730469 8.195312 127.949219 C 5.613281 131.113281 3.246094 134.433594 1.101562 137.910156 L 0.992188 138.09375 L 1.152344 137.953125 C 4.273438 135.261719 7.210938 132.273438 10.046875 129.382812 C 11.238281 128.167969 12.472656 126.914062 13.699219 125.699219 C 14.171875 125.246094 14.644531 124.753906 15.101562 124.277344 C 16.996094 122.304688 18.957031 120.261719 21.785156 119.890625 L 21.8125 119.886719 L 21.816406 119.859375 C 22.441406 116.300781 25.304688 114.332031 28.074219 112.429688 C 28.910156 111.855469 29.773438 111.261719 30.550781 110.636719 C 31.78125 109.792969 32.992188 108.867188 34.160156 107.972656 C 36.289062 106.238281 38.550781 104.707031 40.957031 103.386719 C 40.855469 105.921875 39.855469 108.320312 38.886719 110.636719 C 38.320312 111.925781 37.824219 113.242188 37.398438 114.585938 C 36.90625 116.605469 35.375 117.972656 33.894531 119.289062 C 33.402344 119.730469 32.890625 120.183594 32.429688 120.65625 C 31.058594 121.976562 29.625 123.289062 28.242188 124.5625 C 25.027344 127.398438 21.992188 130.417969 19.140625 133.617188 L 18.996094 133.785156 L 19.183594 133.671875 C 21.804688 131.984375 24.308594 130.140625 26.695312 128.132812 C 28.023438 127.0625 29.398438 125.953125 30.789062 124.921875 C 31.957031 123.960938 33.148438 122.992188 34.304688 122.054688 C 40.015625 117.414062 45.925781 112.613281 51.007812 107.148438 L 51.058594 107.09375 L 50.980469 107.089844 C 50.371094 107.070312 49.75 107.066406 49.148438 107.0625 C 47.960938 107.054688 46.734375 107.042969 45.53125 106.9375 C 46.269531 104.902344 47.730469 103.265625 49.140625 101.679688 C 49.367188 101.421875 49.59375 101.167969 49.816406 100.914062 C 54.148438 96.464844 58.695312 92.25 63.464844 88.273438 C 66.296875 85.828125 69.226562 83.300781 72.003906 80.703125 C 70.578125 84.835938 68.789062 88.808594 66.636719 92.617188 L 66.636719 92.625 C 66.46875 93.777344 66.417969 94.933594 66.484375 96.09375 C 66.53125 98.230469 66.582031 100.4375 65.183594 102.199219 C 64.820312 102.703125 64.445312 103.210938 64.085938 103.707031 C 61.921875 106.460938 60.058594 109.40625 58.5 112.542969 L 58.449219 112.652344 L 58.550781 112.585938 C 61.539062 110.441406 64.285156 108.023438 66.792969 105.335938 C 67.78125 104.34375 68.804688 103.316406 69.839844 102.339844 C 72.210938 99.75 75.398438 98.226562 78.484375 96.757812 C 79.71875 96.167969 80.996094 95.558594 82.203125 94.886719 C 80.695312 97.457031 79.046875 99.933594 77.261719 102.316406 C 72.519531 108.839844 65.953125 113.691406 59.601562 118.386719 C 57.824219 119.699219 55.984375 121.058594 54.222656 122.429688 C 50.886719 124.984375 47.410156 127.484375 44.050781 129.902344 C 39.214844 133.382812 34.210938 136.984375 29.527344 140.820312 L 29.566406 140.878906 L 29.664062 140.816406 C 47.636719 129.214844 66.222656 117.222656 83.46875 103.964844 C 84.433594 103.246094 85.390625 102.46875 86.320312 101.71875 Z M 86.320312 101.71875 " fill-opacity="1" fill-rule="nonzero"/></g><path fill="#98a49a" d="M 269.234375 112.84375 C 267.960938 111.996094 266.644531 111.117188 265.355469 110.238281 C 264.875 109.910156 264.375 109.578125 263.890625 109.257812 C 261.285156 107.53125 258.59375 105.746094 257.050781 102.945312 C 256.8125 102.519531 256.570312 102.078125 256.339844 101.648438 C 255.042969 99.253906 253.703125 96.773438 251.324219 95.277344 C 249.207031 94.074219 246.996094 93.085938 244.6875 92.304688 C 241.765625 91.214844 238.746094 90.085938 236.277344 88.078125 C 234.242188 85.617188 233.226562 82.570312 232.246094 79.625 C 231.292969 76.761719 230.304688 73.800781 228.382812 71.371094 C 225.527344 67.867188 220.933594 66.824219 217.582031 66.566406 C 215.421875 66.589844 213.949219 68.289062 212.652344 69.789062 C 212.40625 70.070312 212.175781 70.339844 211.9375 70.597656 C 209.203125 73.957031 206.472656 77.410156 203.832031 80.75 C 201.53125 83.660156 199.152344 86.667969 196.785156 89.597656 C 195.476562 90.980469 195.34375 92.84375 195.21875 94.648438 C 195.183594 95.105469 195.152344 95.582031 195.097656 96.03125 C 190.660156 99.515625 186.289062 103.230469 182.066406 106.824219 C 180.613281 108.058594 179.113281 109.335938 177.628906 110.585938 C 176.90625 111.257812 176.128906 111.90625 175.378906 112.53125 C 173.640625 113.863281 172.097656 115.390625 170.75 117.113281 L 170.644531 117.261719 L 170.796875 117.164062 C 177.042969 113.203125 183.242188 108.921875 189.234375 104.78125 C 190.898438 103.632812 192.617188 102.445312 194.3125 101.28125 C 201.925781 96.117188 208.996094 90.292969 215.523438 83.808594 C 215.667969 83.679688 215.8125 83.539062 215.949219 83.40625 C 216.441406 82.863281 217.019531 82.449219 217.695312 82.160156 C 219.5 82.816406 221.171875 83.722656 222.707031 84.878906 C 223.355469 85.320312 224.023438 85.773438 224.695312 86.179688 C 228.121094 88.503906 231.578125 90.90625 234.921875 93.230469 C 242.5625 98.542969 250.464844 104.035156 258.558594 108.953125 C 259.875 109.679688 261.210938 110.429688 262.503906 111.15625 C 267.726562 114.207031 273.097656 116.96875 278.617188 119.441406 L 278.882812 119.554688 L 278.652344 119.378906 C 275.597656 117.089844 272.363281 114.933594 269.234375 112.84375 Z M 269.234375 112.84375 " fill-opacity="1" fill-rule="nonzero"/><g clip-path="url(#e8232eb699)"><path fill="#98a49a" d="M 374.589844 126.109375 C 372.640625 124.386719 370.515625 122.816406 368.460938 121.296875 C 367.378906 120.5 366.265625 119.675781 365.1875 118.839844 C 364.792969 118.554688 364.390625 118.261719 364 117.976562 C 360.839844 115.664062 357.570312 113.273438 353.515625 113.167969 C 350.382812 113.039062 348.0625 110.945312 345.824219 108.921875 C 345.632812 108.75 345.441406 108.578125 345.25 108.40625 C 344.835938 108.023438 344.402344 107.660156 343.949219 107.320312 C 342.863281 106.476562 341.738281 105.605469 341.386719 104.195312 C 340.621094 101.65625 338.507812 100.132812 336.464844 98.65625 C 335.734375 98.128906 334.980469 97.585938 334.308594 97.003906 C 330.785156 94.355469 327.652344 91.308594 324.914062 87.855469 C 320.816406 83.128906 315.804688 79.261719 310.960938 75.519531 C 308.675781 73.757812 306.3125 71.933594 304.078125 70.042969 C 302.101562 68.304688 300.25 67.800781 298.722656 68.589844 C 297.222656 69.574219 295.859375 70.722656 294.632812 72.03125 C 293.28125 73.5 291.746094 74.742188 290.023438 75.753906 C 288.980469 76.207031 287.90625 76.582031 286.804688 76.878906 C 284.96875 77.421875 283.070312 77.984375 281.554688 79.28125 C 279.285156 81.167969 277.816406 83.757812 276.398438 86.257812 C 275.828125 87.265625 275.238281 88.308594 274.605469 89.285156 C 272.640625 92.273438 270.417969 95.054688 267.933594 97.628906 C 267.246094 98.390625 266.53125 99.175781 265.84375 99.960938 C 265.730469 100.097656 265.613281 100.238281 265.496094 100.375 C 264.527344 101.328125 263.871094 102.460938 263.535156 103.777344 C 263.511719 104.101562 263.589844 104.402344 263.761719 104.679688 C 263.933594 104.957031 264.171875 105.15625 264.472656 105.277344 C 264.800781 105.429688 265.144531 105.472656 265.5 105.410156 C 265.851562 105.347656 266.160156 105.191406 266.414062 104.9375 C 268.449219 103.15625 270.449219 101.269531 272.382812 99.449219 C 274.582031 97.371094 276.859375 95.226562 279.199219 93.222656 C 279.589844 92.816406 280.0625 92.5625 280.613281 92.457031 C 281.167969 92.355469 281.699219 92.421875 282.210938 92.65625 L 282.230469 92.664062 L 282.246094 92.652344 C 284.171875 90.980469 286.070312 89.203125 287.902344 87.488281 C 291.066406 84.414062 294.390625 81.527344 297.878906 78.832031 L 298.117188 79.015625 C 298.828125 79.527344 299.496094 80.09375 300.121094 80.707031 C 304.820312 85.835938 311.050781 92.539062 317.578125 98.910156 C 318.226562 99.519531 318.875 100.148438 319.503906 100.761719 C 322.027344 103.214844 324.636719 105.75 327.707031 107.609375 L 327.808594 107.667969 L 327.757812 107.5625 C 325.460938 102.941406 322.222656 98.789062 319.09375 94.773438 C 317.738281 93.035156 316.339844 91.238281 315.035156 89.429688 C 319.492188 91.992188 323.75 95.035156 327.871094 97.980469 C 328.753906 98.613281 329.671875 99.269531 330.570312 99.90625 C 331.027344 100.289062 331.542969 100.644531 332.039062 100.988281 C 333.296875 101.863281 334.601562 102.765625 335.191406 104.246094 C 334.738281 104.355469 334.285156 104.460938 333.832031 104.566406 C 333.070312 104.746094 332.28125 104.929688 331.515625 105.121094 L 331.453125 105.136719 L 331.5 105.179688 C 334.46875 108.089844 338.007812 110.390625 341.433594 112.617188 C 342.113281 113.0625 342.816406 113.519531 343.507812 113.976562 C 344.050781 114.308594 344.601562 114.65625 345.136719 114.992188 C 347.617188 116.664062 350.242188 118.070312 353.007812 119.21875 C 354.011719 119.722656 355.035156 119.398438 356.023438 119.082031 C 357.109375 118.730469 358.136719 118.402344 359.167969 119.078125 C 360.390625 119.660156 361.628906 120.269531 362.824219 120.855469 C 366.621094 122.714844 370.542969 124.636719 374.554688 126.167969 L 374.734375 126.234375 Z M 374.589844 126.109375 " fill-opacity="1" fill-rule="nonzero"/></g><path fill="#98a49a" d="M 286.964844 98.386719 C 289.59375 95.703125 292.3125 92.929688 294.320312 89.699219 L 294.425781 89.527344 L 294.269531 89.65625 C 291.832031 91.6875 289.523438 93.855469 287.34375 96.160156 C 286.375 97.144531 285.375 98.164062 284.367188 99.140625 C 283.660156 99.882812 282.929688 100.632812 282.222656 101.355469 C 279.355469 104.285156 276.390625 107.316406 274.253906 110.890625 L 274.140625 111.078125 L 274.308594 110.933594 C 276.585938 108.929688 278.757812 106.738281 280.859375 104.621094 C 281.847656 103.621094 282.867188 102.589844 283.890625 101.589844 C 284.886719 100.503906 285.941406 99.425781 286.964844 98.386719 Z M 286.964844 98.386719 " fill-opacity="1" fill-rule="nonzero"/><path fill="#98a49a" d="M 237.269531 105.261719 C 235.359375 103.617188 233.386719 101.917969 231.511719 100.179688 C 230.382812 98.96875 229.515625 97.589844 228.914062 96.046875 C 228.101562 94.308594 227.261719 92.511719 225.621094 91.359375 C 223.289062 90.261719 221.308594 91.917969 219.558594 93.378906 C 219.050781 93.800781 218.570312 94.203125 218.089844 94.535156 L 218.089844 94.539062 C 215.976562 96.09375 213.941406 97.84375 211.96875 99.53125 C 208.101562 102.851562 204.097656 106.28125 199.34375 108.4375 C 195.054688 110.40625 191.25 113.074219 187.933594 116.433594 C 186.652344 117.785156 185.457031 119.207031 184.347656 120.703125 C 183.453125 121.863281 182.527344 123.0625 181.527344 124.164062 C 179.277344 126.640625 176.222656 128.058594 173.265625 129.433594 C 169.929688 130.980469 166.480469 132.582031 164.1875 135.714844 L 164.09375 135.84375 L 164.234375 135.765625 C 165.128906 135.242188 165.996094 134.667969 166.828125 134.046875 C 167.734375 133.363281 168.683594 132.746094 169.671875 132.191406 C 170.953125 131.515625 172.300781 130.90625 173.601562 130.316406 C 175.980469 129.320312 178.25 128.117188 180.40625 126.707031 C 182.675781 125.023438 184.816406 123.195312 186.832031 121.222656 C 189.488281 118.738281 192.234375 116.167969 195.476562 114.332031 C 196.804688 113.566406 198.199219 112.867188 199.546875 112.191406 C 201.117188 111.402344 202.738281 110.589844 204.269531 109.667969 C 207.613281 107.636719 210.871094 105.363281 214.027344 103.160156 C 215.886719 101.863281 217.808594 100.523438 219.730469 99.246094 C 219.957031 99.058594 220.210938 98.917969 220.484375 98.816406 C 220.761719 98.714844 221.042969 98.660156 221.335938 98.652344 C 221.628906 98.644531 221.917969 98.683594 222.199219 98.769531 C 222.476562 98.859375 222.738281 98.988281 222.972656 99.160156 C 227 101.492188 230.933594 104.132812 234.734375 106.683594 C 238.785156 109.402344 242.972656 112.214844 247.292969 114.667969 L 247.488281 114.78125 L 247.332031 114.613281 C 244.152344 111.308594 240.796875 108.191406 237.269531 105.261719 Z M 237.269531 105.261719 " fill-opacity="1" fill-rule="nonzero"/><path fill="#98a49a" d="M 123.640625 124.078125 C 122.746094 123.316406 121.816406 122.5625 120.917969 121.835938 C 118.195312 119.628906 115.382812 117.351562 113.195312 114.527344 C 111.378906 112.125 110.300781 109.285156 109.261719 106.539062 C 108.574219 104.601562 107.761719 102.71875 106.824219 100.890625 C 105.21875 97.601562 101.257812 96.683594 97.984375 96.253906 C 95.84375 95.777344 94.1875 97.371094 92.988281 98.816406 C 90.945312 101.167969 88.808594 103.503906 86.746094 105.769531 C 84.515625 108.210938 82.207031 110.738281 80.011719 113.285156 C 79.175781 114.179688 79.113281 115.390625 79.054688 116.5625 C 79.035156 116.910156 79.019531 117.269531 78.980469 117.609375 C 77.644531 118.890625 76.203125 120.121094 74.808594 121.3125 C 72.039062 123.675781 69.179688 126.117188 66.984375 129.109375 L 66.882812 129.246094 L 67.027344 129.160156 C 76.8125 123.371094 86.007812 116.761719 94.617188 109.339844 C 94.808594 109.207031 94.992188 109.0625 95.167969 108.90625 C 95.777344 108.390625 96.460938 107.808594 97.195312 108.402344 C 100.445312 110.28125 103.550781 112.367188 106.515625 114.660156 C 107.886719 115.671875 109.300781 116.71875 110.71875 117.707031 C 121.222656 125.300781 129.46875 130.871094 137.457031 135.773438 L 137.5 135.71875 C 134.78125 133.242188 131.886719 130.878906 129.089844 128.597656 C 127.292969 127.128906 125.433594 125.609375 123.640625 124.078125 Z M 123.640625 124.078125 " fill-opacity="1" fill-rule="nonzero"/><path fill="#98a49a" d="M 294.816406 103.425781 C 293.722656 102.699219 292.84375 103.566406 292.070312 104.332031 C 291.871094 104.527344 291.6875 104.710938 291.503906 104.859375 L 291.5 104.863281 C 290.726562 105.683594 289.925781 106.5 289.148438 107.292969 C 286.972656 109.414062 284.949219 111.679688 283.085938 114.082031 L 283.003906 114.191406 L 283.128906 114.132812 C 285.097656 113.144531 286.976562 112.007812 288.769531 110.722656 C 290.703125 109.320312 292.75 108.105469 294.910156 107.085938 C 296.886719 107.660156 298.785156 108.425781 300.605469 109.382812 C 301.910156 110.039062 303.242188 110.632812 304.609375 111.15625 L 304.78125 111.21875 L 304.644531 111.097656 C 301.609375 108.230469 298.332031 105.675781 294.816406 103.425781 Z M 294.816406 103.425781 " fill-opacity="1" fill-rule="nonzero"/><g clip-path="url(#2b2eb508f3)"><path fill="#98a49a" d="M 110.886719 124.910156 C 109.28125 123.617188 107.625 122.28125 106.121094 120.851562 C 105.417969 119.996094 104.832031 119.066406 104.359375 118.066406 C 103.78125 116.738281 102.957031 115.585938 101.882812 114.609375 C 100.488281 113.664062 98.902344 114.65625 98.285156 115.128906 C 95.753906 116.890625 93.328125 118.875 90.980469 120.792969 C 89.28125 122.1875 87.519531 123.625 85.730469 124.96875 C 84.359375 125.949219 82.910156 126.808594 81.390625 127.542969 C 80.347656 128.082031 79.269531 128.640625 78.257812 129.277344 C 74.339844 131.644531 71.417969 135.265625 68.589844 138.769531 C 68.382812 139.023438 68.179688 139.28125 67.972656 139.535156 L 67.84375 139.691406 L 68.015625 139.585938 C 69.832031 138.402344 71.546875 137.089844 73.164062 135.648438 C 75.359375 133.777344 77.632812 131.847656 80.34375 130.625 C 85.597656 128.191406 90.488281 125.171875 95.015625 121.5625 C 95.257812 121.40625 95.507812 121.222656 95.769531 121.03125 C 96.859375 120.222656 98.097656 119.304688 99.371094 120.160156 C 102.230469 121.808594 105.046875 123.636719 107.773438 125.40625 C 111.128906 127.589844 114.605469 129.847656 118.191406 131.785156 L 118.34375 131.867188 L 118.234375 131.730469 C 116.023438 129.199219 113.574219 126.925781 110.886719 124.910156 Z M 110.886719 124.910156 " fill-opacity="1" fill-rule="nonzero"/></g></g></g></g></g><g fill="#00ff00" fill-opacity="1"><g transform="translate(32.670256, 130.360689)"><g><path d="M 55.75 0 L 43.03125 0 L 43.03125 -26.453125 L 18.234375 -26.453125 L 18.234375 0 L 5.515625 0 L 5.515625 -61.734375 L 18.234375 -61.734375 L 18.234375 -36.71875 L 43.03125 -36.71875 L 43.03125 -61.734375 L 55.75 -61.734375 Z M 55.75 0 "/></g></g></g><g fill="#00ff00" fill-opacity="1"><g transform="translate(94.007742, 130.360689)"><g><path d="M 2.796875 -23.359375 C 2.796875 -27.910156 3.671875 -31.96875 5.421875 -35.53125 C 7.179688 -39.09375 9.707031 -41.847656 13 -43.796875 C 16.289062 -45.742188 20.113281 -46.71875 24.46875 -46.71875 C 30.65625 -46.71875 35.703125 -44.820312 39.609375 -41.03125 C 43.523438 -37.25 45.710938 -32.109375 46.171875 -25.609375 L 46.25 -22.46875 C 46.25 -15.425781 44.285156 -9.78125 40.359375 -5.53125 C 36.429688 -1.28125 31.160156 0.84375 24.546875 0.84375 C 17.929688 0.84375 12.648438 -1.273438 8.703125 -5.515625 C 4.765625 -9.753906 2.796875 -15.519531 2.796875 -22.8125 Z M 15.046875 -22.46875 C 15.046875 -18.113281 15.863281 -14.785156 17.5 -12.484375 C 19.144531 -10.179688 21.492188 -9.03125 24.546875 -9.03125 C 27.515625 -9.03125 29.832031 -10.164062 31.5 -12.4375 C 33.164062 -14.71875 34 -18.359375 34 -23.359375 C 34 -27.628906 33.164062 -30.9375 31.5 -33.28125 C 29.832031 -35.625 27.488281 -36.796875 24.46875 -36.796875 C 21.46875 -36.796875 19.144531 -35.628906 17.5 -33.296875 C 15.863281 -30.972656 15.046875 -27.363281 15.046875 -22.46875 Z M 15.046875 -22.46875 "/></g></g></g><g fill="#757575" fill-opacity="1"><g transform="translate(225.10683, 145.270159)"><g><path d="M 29.363281 -33.324219 C 23 -34.003906 9.125 -33.585938 6.308594 -32.179688 C 5.164062 -31.605469 4.953125 -28.265625 6.570312 -28.476562 C 9.441406 -28.839844 13.402344 -29.308594 17.574219 -29.777344 C 16.21875 -26.078125 13.351562 -16.375 13.039062 -15.386719 C 11.265625 -10.222656 9.753906 -4.902344 8.917969 0 C 8.710938 1.25 11.527344 2.554688 11.785156 1.199219 C 12.828125 -4.328125 17.367188 -17.835938 18.828125 -22.269531 C 19.609375 -24.617188 20.601562 -27.378906 21.851562 -30.25 L 32.230469 -31.394531 C 37.289062 -31.917969 31.8125 -33.066406 29.363281 -33.324219 Z M 29.363281 -33.324219 "/></g></g></g><g fill="#757575" fill-opacity="1"><g transform="translate(245.915077, 145.270159)"><g><path d="M 3.496094 0.679688 C 4.066406 0.679688 5.058594 -1.617188 5.527344 -2.816406 C 6.050781 -4.066406 6.832031 -5.582031 7.511719 -6.882812 C 8.292969 -8.398438 10.585938 -11.265625 11.839844 -12.046875 C 12.777344 -9.855469 13.664062 -8.867188 15.4375 -8.867188 C 16.273438 -8.867188 17.417969 -10.222656 17.054688 -10.484375 C 15.699219 -11.628906 15.230469 -12.414062 14.601562 -14.289062 C 14.082031 -15.90625 12.621094 -16.429688 11.527344 -15.488281 C 9.648438 -13.871094 7.613281 -11.472656 6.257812 -8.917969 C 7.300781 -11.628906 7.980469 -13.714844 8.136719 -14.707031 C 8.238281 -15.542969 8.238281 -16.0625 5.894531 -16.949219 C 5.214844 -17.210938 4.171875 -16.53125 1.980469 -7.09375 C 1.667969 -5.738281 0.574219 -1.878906 0.574219 -0.9375 C 0.574219 -0.0507812 0.9375 0.679688 3.496094 0.679688 Z M 3.496094 0.679688 "/></g></g></g><g fill="#757575" fill-opacity="1"><g transform="translate(261.768988, 145.270159)"><g><path d="M 16.011719 1.09375 C 19.609375 0.730469 23.46875 -6.414062 21.902344 -5.164062 C 21.175781 -4.796875 17.785156 -1.773438 15.175781 -1.566406 C 13.820312 -1.460938 13.457031 -2.347656 13.457031 -3.496094 C 13.457031 -6.414062 15.386719 -11.210938 16.792969 -13.769531 C 17.15625 -14.445312 16.636719 -15.230469 15.644531 -15.699219 C 15.125 -16.011719 13.820312 -16.6875 13.195312 -15.699219 C 10.328125 -17.679688 6.675781 -15.699219 4.171875 -12.933594 C -0.105469 -8.34375 -3.023438 -0.835938 2.609375 -0.207031 C 4.433594 -0.0507812 7.039062 -1.304688 10.328125 -4.851562 C 10.640625 -0.9375 12.984375 1.40625 16.011719 1.09375 Z M 2.816406 -3.703125 C 4.953125 -9.125 10.117188 -14.183594 11.578125 -12.828125 C 11.578125 -9.910156 1.773438 -0.3125 2.816406 -3.703125 Z M 2.816406 -3.703125 "/></g></g></g><g fill="#757575" fill-opacity="1"><g transform="translate(281.42992, 145.270159)"><g><path d="M 5.894531 1.566406 C 7.71875 1.566406 10.847656 -4.589844 11.734375 -6.46875 C 12.253906 -7.667969 15.332031 -13.613281 15.90625 -14.601562 C 16.375 -15.386719 17 -15.75 17 -16.324219 C 17 -16.792969 16.0625 -18.042969 15.28125 -18.042969 C 14.5 -18.042969 13.871094 -17.054688 13.246094 -16.21875 C 12.464844 -15.125 8.238281 -7.875 6.414062 -4.851562 C 6.308594 -6.625 6.308594 -8.292969 6.308594 -10.011719 L 6.308594 -13.714844 C 6.308594 -16.585938 5.996094 -16.949219 3.703125 -17.261719 C 3.390625 -17.316406 3.179688 -17.316406 2.972656 -17.316406 C 2.398438 -17.316406 2.242188 -17.054688 2.242188 -16.480469 C 2.242188 -16.167969 2.242188 -15.855469 2.292969 -15.4375 C 2.503906 -13.246094 2.710938 -11.109375 2.765625 -8.917969 C 2.867188 -6.46875 2.972656 -1.40625 3.703125 0.105469 C 4.171875 1.09375 5.476562 1.566406 5.894531 1.566406 Z M 5.894531 1.566406 "/></g></g></g><g fill="#757575" fill-opacity="1"><g transform="translate(297.857483, 145.270159)"><g><path d="M 7.039062 0.78125 C 9.855469 0.78125 13.246094 -1.042969 15.019531 -3.128906 C 16.53125 -4.902344 16.53125 -6.726562 16.21875 -6.414062 C 12.828125 -3.023438 9.125 -1.824219 6.519531 -1.824219 C 5.527344 -1.824219 4.746094 -2.035156 4.328125 -2.503906 C 3.496094 -3.441406 3.546875 -4.953125 4.015625 -6.519531 C 4.902344 -5.945312 6.152344 -5.632812 7.09375 -5.632812 C 7.351562 -5.632812 7.5625 -5.632812 7.769531 -5.683594 C 10.484375 -6.257812 12.308594 -8.605469 12.984375 -10.796875 C 13.300781 -11.683594 13.402344 -12.515625 13.402344 -13.246094 C 13.402344 -13.558594 13.402344 -13.820312 13.351562 -14.132812 C 13.195312 -15.019531 12.882812 -15.59375 12.046875 -16.0625 C 11.527344 -16.375 10.953125 -16.53125 10.378906 -16.53125 C 6.675781 -16.53125 0.523438 -11.160156 0.523438 -5.425781 C 0.523438 -3.753906 0.679688 -2.398438 2.398438 -0.9375 C 3.546875 0 5.371094 0.78125 7.039062 0.78125 Z M 5.214844 -8.710938 C 6.675781 -11.371094 10.585938 -14.445312 10.953125 -13.769531 C 11.371094 -13.039062 8.292969 -9.960938 7.769531 -9.597656 C 7.144531 -9.023438 6.152344 -8.238281 5.214844 -8.710938 Z M 5.214844 -8.710938 "/></g></g></g><g fill="#757575" fill-opacity="1"><g transform="translate(311.886096, 145.270159)"><g><path d="M 8.398438 1.148438 C 10.535156 1.148438 12.828125 -0.523438 14.132812 -1.824219 C 15.070312 -2.765625 15.90625 -4.695312 15.75 -5.265625 C 15.542969 -5.996094 15.175781 -5.265625 13.457031 -3.808594 C 12.203125 -2.710938 9.855469 -1.25 7.769531 -1.25 C 5.007812 -1.25 4.902344 -3.910156 4.902344 -4.851562 C 8.082031 -7.09375 11.109375 -11.890625 12.203125 -13.558594 C 14.238281 -16.585938 15.90625 -19.816406 17.316406 -23.15625 C 18.410156 -25.761719 18.878906 -28.476562 18.828125 -30.925781 C 18.773438 -32.910156 16.480469 -34.003906 14.757812 -34.003906 C 14.445312 -34.003906 14.132812 -34.003906 13.871094 -33.898438 C 12.203125 -33.324219 11.472656 -32.28125 10.585938 -30.980469 C 8.867188 -28.476562 7.769531 -26.546875 6.46875 -23.675781 C 5.320312 -21.175781 4.222656 -18.410156 3.441406 -15.855469 C 2.503906 -12.828125 1.511719 -9.335938 1.511719 -6.308594 C 1.511719 -3.703125 1.773438 -1.25 3.964844 0.0507812 C 5.527344 0.992188 7.300781 1.148438 8.398438 1.148438 Z M 5.058594 -8.449219 C 5.683594 -11.265625 6.625 -13.925781 7.5625 -16.113281 C 9.960938 -21.902344 14.601562 -31.136719 15.855469 -31.136719 C 16.0625 -31.136719 16.167969 -30.925781 16.167969 -30.457031 C 16.167969 -30.300781 16.167969 -30.09375 16.113281 -29.882812 C 15.644531 -25.816406 13.664062 -22.269531 12.152344 -18.984375 C 11.210938 -16.949219 9.804688 -14.65625 8.5 -12.828125 C 7.667969 -11.628906 6.625 -10.222656 5.058594 -8.449219 Z M 5.058594 -8.449219 "/></g></g></g><g fill="#000000" fill-opacity="1"><g transform="translate(136.880513, 130.360689)"><g><path d="M 5.515625 0 L 5.515625 -61.734375 L 27.140625 -61.734375 C 34.628906 -61.734375 40.304688 -60.296875 44.171875 -57.421875 C 48.046875 -54.554688 49.984375 -50.351562 49.984375 -44.8125 C 49.984375 -41.789062 49.207031 -39.125 47.65625 -36.8125 C 46.101562 -34.507812 43.941406 -32.820312 41.171875 -31.75 C 44.335938 -30.957031 46.832031 -29.359375 48.65625 -26.953125 C 50.476562 -24.554688 51.390625 -21.617188 51.390625 -18.140625 C 51.390625 -12.210938 49.492188 -7.71875 45.703125 -4.65625 C 41.910156 -1.601562 36.515625 -0.0507812 29.515625 0 Z M 18.234375 -26.875 L 18.234375 -10.21875 L 29.125 -10.21875 C 32.125 -10.21875 34.460938 -10.929688 36.140625 -12.359375 C 37.828125 -13.785156 38.671875 -15.753906 38.671875 -18.265625 C 38.671875 -23.921875 35.742188 -26.789062 29.890625 -26.875 Z M 18.234375 -35.875 L 27.640625 -35.875 C 34.054688 -35.976562 37.265625 -38.535156 37.265625 -43.546875 C 37.265625 -46.335938 36.453125 -48.347656 34.828125 -49.578125 C 33.203125 -50.804688 30.640625 -51.421875 27.140625 -51.421875 L 18.234375 -51.421875 Z M 18.234375 -35.875 "/></g></g></g><g fill="#000000" fill-opacity="1"><g transform="translate(192.283481, 130.360689)"><g><path d="M 31.28125 0 C 30.71875 -1.101562 30.3125 -2.472656 30.0625 -4.109375 C 27.09375 -0.804688 23.234375 0.84375 18.484375 0.84375 C 13.992188 0.84375 10.269531 -0.453125 7.3125 -3.046875 C 4.363281 -5.648438 2.890625 -8.929688 2.890625 -12.890625 C 2.890625 -17.753906 4.6875 -21.484375 8.28125 -24.078125 C 11.882812 -26.679688 17.09375 -28 23.90625 -28.03125 L 29.546875 -28.03125 L 29.546875 -30.65625 C 29.546875 -32.769531 29 -34.460938 27.90625 -35.734375 C 26.820312 -37.003906 25.109375 -37.640625 22.765625 -37.640625 C 20.703125 -37.640625 19.082031 -37.144531 17.90625 -36.15625 C 16.738281 -35.175781 16.15625 -33.820312 16.15625 -32.09375 L 3.90625 -32.09375 C 3.90625 -34.75 4.722656 -37.207031 6.359375 -39.46875 C 7.992188 -41.726562 10.3125 -43.5 13.3125 -44.78125 C 16.3125 -46.070312 19.675781 -46.71875 23.40625 -46.71875 C 29.050781 -46.71875 33.535156 -45.296875 36.859375 -42.453125 C 40.179688 -39.617188 41.84375 -35.628906 41.84375 -30.484375 L 41.84375 -10.59375 C 41.875 -6.238281 42.484375 -2.945312 43.671875 -0.71875 L 43.671875 0 Z M 21.15625 -8.515625 C 22.96875 -8.515625 24.632812 -8.914062 26.15625 -9.71875 C 27.6875 -10.53125 28.816406 -11.613281 29.546875 -12.96875 L 29.546875 -20.859375 L 24.96875 -20.859375 C 18.832031 -20.859375 15.566406 -18.738281 15.171875 -14.5 L 15.140625 -13.78125 C 15.140625 -12.25 15.675781 -10.988281 16.75 -10 C 17.820312 -9.007812 19.289062 -8.515625 21.15625 -8.515625 Z M 21.15625 -8.515625 "/></g></g></g></svg>