<svg xmlns="http://www.w3.org/2000/svg" aria-hidden="true" style="position:absolute;width:0;height:0;overflow:hidden"><defs><symbol id="icon-location" viewBox="0 0 32 32"><path d="M16 0C10.477 0 6 4.477 6 10c0 10 10 22 10 22s10-12 10-22c0-5.523-4.477-10-10-10zm0 16a6 6 0 1 1 0-12 6 6 0 0 1 0 12z"/></symbol><symbol id="icon-clock" viewBox="0 0 32 32"><path d="M20.586 23.414 14 16.828V8h4v7.172l5.414 5.414zM16 0C7.163 0 0 7.163 0 16s7.163 16 16 16 16-7.163 16-16S24.837 0 16 0zm0 28C9.373 28 4 22.627 4 16S9.373 4 16 4s12 5.373 12 12-5.373 12-12 12z"/></symbol><symbol id="icon-undo2" viewBox="0 0 32 32"><path d="M23.808 32c3.554-6.439 4.153-16.26-9.808-15.932V24L2 12 14 0v7.762C30.718 7.326 32.58 22.519 23.808 32z"/></symbol><symbol id="icon-redo2" viewBox="0 0 32 32"><path d="M18 7.762V0l12 12-12 12v-7.932C4.039 15.74 4.638 25.561 8.192 32-.58 22.518 1.283 7.326 18 7.762z"/></symbol><symbol id="icon-bubbles2" viewBox="0 0 36 32"><path d="M15 0c8.284 0 15 5.435 15 12.139s-6.716 12.139-15 12.139c-.796 0-1.576-.051-2.339-.147C9.439 27.34 5.718 27.916 2 28v-.785c2.008-.98 3.625-2.765 3.625-4.804 0-.285-.022-.564-.063-.837C2.17 19.349 0 15.949 0 12.14 0 5.436 6.716.001 15 .001zm16.125 27.209c0 1.748 1.135 3.278 2.875 4.118V32c-3.223-.072-6.181-.566-8.973-3.316-.661.083-1.337.126-2.027.126-2.983 0-5.732-.805-7.925-2.157 4.521-.016 8.789-1.464 12.026-4.084 1.631-1.32 2.919-2.87 3.825-4.605.961-1.84 1.449-3.799 1.449-5.825 0-.326-.014-.651-.039-.974C34.604 13.038 36 15.591 36 18.405c0 3.265-1.88 6.179-4.82 8.086a4.722 4.722 0 0 0-.055.718z"/></symbol><symbol id="icon-user-plus" viewBox="0 0 32 32"><path d="M12 23c0-4.726 2.996-8.765 7.189-10.319C19.698 11.539 20 10.27 20 9c0-4.971 0-9-6-9S8 4.029 8 9c0 3.096 1.797 6.191 4 7.432v1.649c-6.784.555-12 3.888-12 7.918h12.416a10.962 10.962 0 0 1-.416-3z"/><path d="M23 14c-4.971 0-9 4.029-9 9s4.029 9 9 9 9-4.029 9-9-4.029-9-9-9zm5 10h-4v4h-2v-4h-4v-2h4v-4h2v4h4v2z"/></symbol><symbol id="icon-user-minus" viewBox="0 0 32 32"><path d="M12 23c0-4.726 2.996-8.765 7.189-10.319C19.698 11.539 20 10.27 20 9c0-4.971 0-9-6-9S8 4.029 8 9c0 3.096 1.797 6.191 4 7.432v1.649c-6.784.555-12 3.888-12 7.918h12.416a10.962 10.962 0 0 1-.416-3z"/><path d="M23 14c-4.971 0-9 4.029-9 9s4.029 9 9 9 9-4.029 9-9-4.029-9-9-9zm5 10H18v-2h10v2z"/></symbol><symbol id="icon-spinner2" viewBox="0 0 32 32"><path d="M32 16a15.832 15.832 0 0 0-4.864-11.137 15.717 15.717 0 0 0-5.156-3.302A15.512 15.512 0 0 0 15.999.5 15.335 15.335 0 0 0 5.216 5.216a15.23 15.23 0 0 0-3.193 4.994A15.027 15.027 0 0 0 1 16a14.92 14.92 0 0 0 1.254 5.694A14.84 14.84 0 0 0 5.57 26.43a14.708 14.708 0 0 0 4.832 3.085A14.534 14.534 0 0 0 16 30.5c1.897-.04 3.78-.455 5.502-1.216a14.346 14.346 0 0 0 4.574-3.208 14.213 14.213 0 0 0 2.977-4.67c.407-1.046.684-2.137.829-3.244a2 2 0 0 0 2.111-2.163H32zm-3.178 5.311c-.733 1.663-1.796 3.169-3.099 4.412s-2.844 2.225-4.508 2.868A13.536 13.536 0 0 1 16 29.5a13.328 13.328 0 0 1-9.369-4.131 13.246 13.246 0 0 1-2.76-4.346 13.048 13.048 0 0 1 .231-9.952c.683-1.541 1.672-2.937 2.883-4.088s2.642-2.058 4.184-2.652a12.539 12.539 0 0 1 9.568.231c1.48.658 2.82 1.609 3.926 2.774s1.975 2.54 2.543 4.021c.57 1.481.837 3.064.794 4.641h.007a2 2 0 0 0 1.777 2.155 13.829 13.829 0 0 1-.962 3.156z"/></symbol><symbol id="icon-search" viewBox="0 0 32 32"><path d="m31.008 27.231-7.58-6.447c-.784-.705-1.622-1.029-2.299-.998a11.954 11.954 0 0 0 2.87-7.787c0-6.627-5.373-12-12-12s-12 5.373-12 12 5.373 12 12 12c2.972 0 5.691-1.081 7.787-2.87-.031.677.293 1.515.998 2.299l6.447 7.58c1.104 1.226 2.907 1.33 4.007.23s.997-2.903-.23-4.007zM12 20a8 8 0 1 1 0-16 8 8 0 0 1 0 16z"/></symbol><symbol id="icon-enlarge2" viewBox="0 0 32 32"><path d="M32 0v13l-5-5-6 6-3-3 6-6-5-5zM14 21l-6 6 5 5H0V19l5 5 6-6z"/></symbol><symbol id="icon-shrink2" viewBox="0 0 32 32"><path d="M14 18v13l-5-5-6 6-3-3 6-6-5-5zM32 3l-6 6 5 5H18V1l5 5 6-6z"/></symbol><symbol id="icon-cog" viewBox="0 0 32 32"><path d="M29.181 19.07c-1.679-2.908-.669-6.634 2.255-8.328l-3.145-5.447a6.022 6.022 0 0 1-3.058.829c-3.361 0-6.085-2.742-6.085-6.125h-6.289a6.023 6.023 0 0 1-.811 3.07C10.369 5.977 6.637 6.966 3.709 5.28L.565 10.727a6.023 6.023 0 0 1 2.246 2.234c1.676 2.903.672 6.623-2.241 8.319l3.145 5.447a6.022 6.022 0 0 1 3.044-.82c3.35 0 6.067 2.725 6.084 6.092h6.289a6.032 6.032 0 0 1 .811-3.038c1.676-2.903 5.399-3.894 8.325-2.219l3.145-5.447a6.032 6.032 0 0 1-2.232-2.226zM16 22.479A6.48 6.48 0 1 1 16 9.52a6.48 6.48 0 0 1 0 12.959z"/></symbol><symbol id="icon-gift" viewBox="0 0 32 32"><path d="M24.11 10a12.62 12.62 0 0 0 1.608-1.348c1.044-1.044 1.742-2.328 1.966-3.616.246-1.412-.115-2.723-.988-3.597-.697-.697-1.641-1.065-2.73-1.065-1.551 0-3.185.744-4.483 2.043-2.077 2.077-3.288 4.945-3.94 6.991-.482-2.056-1.444-4.833-3.313-6.702-1.003-1.003-2.285-1.518-3.495-1.518-.989 0-1.931.344-2.633 1.046-1.562 1.562-1.351 4.306.471 6.128.65.65 1.409 1.189 2.21 1.638H2.001v8h2v14h24V18h2v-8h-5.89zm-3.037-5.993c.866-.866 1.948-1.384 2.892-1.384.334 0 .803.07 1.139.406.813.813.357 2.697-.977 4.031-1.373 1.373-3.221 2.318-4.826 2.939h-1.584c.58-1.798 1.627-4.264 3.356-5.993zM7.31 5.028c-.022-.285-.002-.82.381-1.203.32-.32.743-.387 1.042-.387.664 0 1.358.313 1.904.859 1.059 1.058 1.93 2.743 2.521 4.871l.047.171-.171-.047c-2.128-.591-3.813-1.462-4.871-2.521-.495-.495-.805-1.13-.853-1.743zM14 30H6V17h8v13zm0-14H4v-4h10v4zm12 14h-8V17h8v13zm2-14H18v-4h10v4z"/></symbol><symbol id="icon-glass" viewBox="0 0 32 32"><path d="M24.306.527A1.001 1.001 0 0 0 23.425 0H8.575a1 1 0 0 0-.881.527C6.586 2.59 6 5.001 6 7.5c0 3.294 1.012 6.401 2.849 8.748 1.42 1.814 3.203 3.017 5.151 3.505V30h-3a1 1 0 0 0 0 2h10a1 1 0 0 0 0-2h-3V19.753c1.949-.488 3.732-1.691 5.151-3.505C24.988 13.901 26 10.794 26 7.5c0-2.499-.586-4.91-1.694-6.973zM9.191 2H22.81c.78 1.653 1.191 3.542 1.191 5.5 0 .168-.003.334-.009.5H8.011a13.814 13.814 0 0 1-.009-.5c0-1.958.41-3.847 1.191-5.5z"/></symbol><symbol id="icon-spoon-knife" viewBox="0 0 32 32"><path d="M7 0C3.686 0 1 3.134 1 7c0 3.31 1.969 6.083 4.616 6.812l-.993 16.191a1.863 1.863 0 0 0 1.878 1.996h1c1.1 0 1.945-.898 1.878-1.996l-.993-16.191c2.646-.729 4.616-3.502 4.616-6.812 0-3.866-2.686-7-6-7zm20.167 0L25.5 10h-1.25l-.833-10h-.833l-.833 10h-1.25L18.834 0h-.833v13a1 1 0 0 0 1 1h2.604l-.982 16.004A1.863 1.863 0 0 0 22.501 32h1c1.1 0 1.945-.898 1.878-1.996L24.397 14h2.604a1 1 0 0 0 1-1V0h-.833z"/></symbol><symbol id="icon-fire" viewBox="0 0 32 32"><path d="M10.031 32c-2.133-4.438-.997-6.981.642-9.376 1.795-2.624 2.258-5.221 2.258-5.221s1.411 1.834.847 4.703c2.493-2.775 2.963-7.196 2.587-8.889C22 17.155 24.408 25.681 21.163 32c17.262-9.767 4.294-24.38 2.036-26.027.753 1.646.895 4.433-.625 5.785C20.001 1.999 13.637-.001 13.637-.001c.753 5.033-2.728 10.536-6.084 14.648-.118-2.007-.243-3.392-1.298-5.312-.237 3.646-3.023 6.617-3.777 10.27-1.022 4.946.765 8.568 7.555 12.394z"/></symbol><symbol id="icon-airplane" viewBox="0 0 32 32"><path d="m24 19.999-5.713-5.713L32 4l-4-4-17.141 6.858-5.397-5.397C3.906-.095 1.734-.467.634.633s-.727 3.273.828 4.828l5.396 5.396L0 28l4 4 10.287-13.715L20 23.998v7.999h4l2-6 6-2v-4h-7.999z"/></symbol><symbol id="icon-target" viewBox="0 0 32 32"><path d="M32 14h-3.154C27.982 8.43 23.57 4.018 18 3.154V0h-4v3.154C8.43 4.018 4.018 8.43 3.154 14H0v4h3.154C4.018 23.57 8.43 27.982 14 28.846V32h4v-3.154c5.57-.864 9.982-5.276 10.846-10.846H32v-4zm-7.224 0h-3.118A6.014 6.014 0 0 0 18 10.342V7.224A9.03 9.03 0 0 1 24.776 14zM16 18a2 2 0 1 1-.001-3.999A2 2 0 0 1 16 18zM14 7.224v3.118A6.014 6.014 0 0 0 10.342 14H7.224A9.03 9.03 0 0 1 14 7.224zM7.224 18h3.118A6.014 6.014 0 0 0 14 21.658v3.118A9.03 9.03 0 0 1 7.224 18zM18 24.776v-3.118A6.014 6.014 0 0 0 21.658 18h3.118A9.03 9.03 0 0 1 18 24.776z"/></symbol><symbol id="icon-menu" viewBox="0 0 32 32"><path d="M2 6h28v6H2zm0 8h28v6H2zm0 8h28v6H2z"/></symbol><symbol id="icon-menu3" viewBox="0 0 44 32"><path d="M0 6h28v6H0V6zm0 8h28v6H0v-6zm0 8h28v6H0v-6zM31 14l6 6 6-6z"/></symbol><symbol id="icon-menu4" viewBox="0 0 44 32"><path d="M0 6h28v6H0V6zm0 8h28v6H0v-6zm0 8h28v6H0v-6zM31 20l6-6 6 6z"/></symbol><symbol id="icon-bookmark" viewBox="0 0 32 32"><path d="M6 0v32l10-10 10 10V0z"/></symbol><symbol id="icon-bookmarks" viewBox="0 0 32 32"><path d="M8 4v28l10-10 10 10V4zm16-4H4v28l2-2V2h18z"/></symbol><symbol id="icon-contrast" viewBox="0 0 32 32"><path d="M16 0C7.163 0 0 7.163 0 16s7.163 16 16 16 16-7.163 16-16S24.837 0 16 0zM4 16C4 9.373 9.373 4 16 4v24C9.373 28 4 22.627 4 16z"/></symbol><symbol id="icon-star-empty" viewBox="0 0 32 32"><path d="m32 12.408-11.056-1.607L16 .783l-4.944 10.018L0 12.408l8 7.798-1.889 11.011L16 26.018l9.889 5.199L24 20.206l8-7.798zM16 23.547l-6.983 3.671 1.334-7.776-5.65-5.507 7.808-1.134 3.492-7.075 3.492 7.075 7.807 1.134-5.65 5.507 1.334 7.776-6.983-3.671z"/></symbol><symbol id="icon-star-half" viewBox="0 0 32 32"><path d="m32 12.408-11.056-1.607L16 .783l-4.944 10.018L0 12.408l8 7.798-1.889 11.011L16 26.018l9.889 5.199L24 20.206l8-7.798zM16 23.547l-.029.015L16 5.725l3.492 7.075 7.807 1.134-5.65 5.507 1.334 7.776L16 23.546z"/></symbol><symbol id="icon-star-full" viewBox="0 0 32 32"><path d="m32 12.408-11.056-1.607L16 .783l-4.944 10.018L0 12.408l8 7.798-1.889 11.011L16 26.018l9.889 5.199L24 20.206l8-7.798z"/></symbol><symbol id="icon-plus" viewBox="0 0 32 32"><path d="M31 12H20V1a1 1 0 0 0-1-1h-6a1 1 0 0 0-1 1v11H1a1 1 0 0 0-1 1v6a1 1 0 0 0 1 1h11v11a1 1 0 0 0 1 1h6a1 1 0 0 0 1-1V20h11a1 1 0 0 0 1-1v-6a1 1 0 0 0-1-1z"/></symbol><symbol id="icon-minus" viewBox="0 0 32 32"><path d="M0 13v6a1 1 0 0 0 1 1h30a1 1 0 0 0 1-1v-6a1 1 0 0 0-1-1H1a1 1 0 0 0-1 1z"/></symbol><symbol id="icon-cross" viewBox="0 0 32 32"><path d="M31.708 25.708 22 16l9.708-9.708a1 1 0 0 0 0-1.414L27.122.292a1 1 0 0 0-1.414-.001L16 9.999 6.292.291a.998.998 0 0 0-1.414.001L.292 4.878a1 1 0 0 0 0 1.414L10 16 .292 25.708a.999.999 0 0 0 0 1.414l4.586 4.586a1 1 0 0 0 1.414 0L16 22l9.708 9.708a1 1 0 0 0 1.414 0l4.586-4.586a.999.999 0 0 0 0-1.414z"/></symbol><symbol id="icon-checkmark" viewBox="0 0 32 32"><path d="M27 4 12 19l-7-7-5 5 12 12L32 9z"/></symbol><symbol id="icon-enter" viewBox="0 0 32 32"><path d="M12 16H2v-4h10V8l6 6-6 6zM32 0v26l-12 6v-6H8v-8h2v6h10V6l8-4H10v8H8V0z"/></symbol><symbol id="icon-exit" viewBox="0 0 32 32"><path d="M24 20v-4H14v-4h10V8l6 6zm-2-2v8H12v6L0 26V0h22v10h-2V2H4l8 4v18h8v-6z"/></symbol><symbol id="icon-arrow-right2" viewBox="0 0 32 32"><path d="m19.414 27.414 10-10a2 2 0 0 0 0-2.828l-10-10a2 2 0 1 0-2.828 2.828L23.172 14H4a2 2 0 1 0 0 4h19.172l-6.586 6.586c-.39.39-.586.902-.586 1.414s.195 1.024.586 1.414a2 2 0 0 0 2.828 0z"/></symbol><symbol id="icon-arrow-left2" viewBox="0 0 32 32"><path d="m12.586 27.414-10-10a2 2 0 0 1 0-2.828l10-10a2 2 0 1 1 2.828 2.828L8.828 14H28a2 2 0 1 1 0 4H8.828l6.586 6.586c.39.39.586.902.586 1.414s-.195 1.024-.586 1.414a2 2 0 0 1-2.828 0z"/></symbol><symbol id="icon-sort-amount-desc" viewBox="0 0 32 32"><path d="M10 24V0H6v24H1l7 7 7-7h-5zM14 0h18v4H14V0zM14 6h14v4H14V6zM14 12h10v4H14v-4z"/><path d="M14 18h6v4h-6v-4z"/></symbol><symbol id="icon-checkbox-checked" viewBox="0 0 32 32"><path d="M28 0H4C1.8 0 0 1.8 0 4v24c0 2.2 1.8 4 4 4h24c2.2 0 4-1.8 4-4V4c0-2.2-1.8-4-4-4zM14 24.828l-7.414-7.414 2.828-2.828L14 19.172l9.586-9.586 2.828 2.828L14 24.828z"/></symbol><symbol id="icon-facebook" viewBox="0 0 32 32"><path d="M19 6h5V0h-5c-3.86 0-7 3.14-7 7v3H8v6h4v16h6V16h5l1-6h-6V7c0-.542.458-1 1-1z"/></symbol><symbol id="icon-instagram" viewBox="0 0 32 32"><path d="M16 2.881c4.275 0 4.781.019 6.462.094 1.563.069 2.406.331 2.969.55a4.952 4.952 0 0 1 1.837 1.194 5.015 5.015 0 0 1 1.2 1.838c.219.563.481 1.412.55 2.969.075 1.688.094 2.194.094 6.463s-.019 4.781-.094 6.463c-.069 1.563-.331 2.406-.55 2.969a4.94 4.94 0 0 1-1.194 1.837 5.02 5.02 0 0 1-1.837 1.2c-.563.219-1.413.481-2.969.55-1.688.075-2.194.094-6.463.094s-4.781-.019-6.463-.094c-1.563-.069-2.406-.331-2.969-.55a4.952 4.952 0 0 1-1.838-1.194 5.02 5.02 0 0 1-1.2-1.837c-.219-.563-.481-1.413-.55-2.969-.075-1.688-.094-2.194-.094-6.463s.019-4.781.094-6.463c.069-1.563.331-2.406.55-2.969a4.964 4.964 0 0 1 1.194-1.838 5.015 5.015 0 0 1 1.838-1.2c.563-.219 1.412-.481 2.969-.55 1.681-.075 2.188-.094 6.463-.094zM16 0c-4.344 0-4.887.019-6.594.094-1.7.075-2.869.35-3.881.744-1.056.412-1.95.956-2.837 1.85a7.833 7.833 0 0 0-1.85 2.831C.444 6.538.169 7.7.094 9.4.019 11.113 0 11.656 0 16s.019 4.887.094 6.594c.075 1.7.35 2.869.744 3.881.413 1.056.956 1.95 1.85 2.837a7.82 7.82 0 0 0 2.831 1.844c1.019.394 2.181.669 3.881.744 1.706.075 2.25.094 6.594.094s4.888-.019 6.594-.094c1.7-.075 2.869-.35 3.881-.744 1.05-.406 1.944-.956 2.831-1.844s1.438-1.781 1.844-2.831c.394-1.019.669-2.181.744-3.881.075-1.706.094-2.25.094-6.594s-.019-4.887-.094-6.594c-.075-1.7-.35-2.869-.744-3.881a7.506 7.506 0 0 0-1.831-2.844A7.82 7.82 0 0 0 26.482.843C25.463.449 24.301.174 22.601.099c-1.712-.081-2.256-.1-6.6-.1z"/><path d="M16 7.781c-4.537 0-8.219 3.681-8.219 8.219s3.681 8.219 8.219 8.219 8.219-3.681 8.219-8.219A8.221 8.221 0 0 0 16 7.781zm0 13.55a5.331 5.331 0 1 1 0-10.663 5.331 5.331 0 0 1 0 10.663zM26.462 7.456a1.919 1.919 0 1 1-3.838 0 1.919 1.919 0 0 1 3.838 0z"/></symbol><symbol id="icon-whatsapp" viewBox="0 0 32 32"><path d="M27.281 4.65C24.287 1.65 20.306 0 16.062 0 7.324 0 .212 7.112.212 15.856c0 2.794.731 5.525 2.119 7.925L.081 32l8.406-2.206a15.858 15.858 0 0 0 7.575 1.931h.006c8.738 0 15.856-7.113 15.856-15.856 0-4.238-1.65-8.219-4.644-11.219zm-11.212 24.4a13.17 13.17 0 0 1-6.713-1.837l-.481-.288-4.987 1.306 1.331-4.863-.313-.5a13.086 13.086 0 0 1-2.019-7.012c0-7.269 5.912-13.181 13.188-13.181 3.519 0 6.831 1.375 9.319 3.862a13.108 13.108 0 0 1 3.856 9.325c-.006 7.275-5.919 13.188-13.181 13.188zm7.225-9.875c-.394-.2-2.344-1.156-2.706-1.288s-.625-.2-.894.2c-.262.394-1.025 1.288-1.256 1.556-.231.262-.462.3-.856.1s-1.675-.619-3.188-1.969c-1.175-1.05-1.975-2.35-2.206-2.744s-.025-.613.175-.806c.181-.175.394-.463.594-.694s.262-.394.394-.662c.131-.262.069-.494-.031-.694s-.894-2.15-1.219-2.944c-.319-.775-.65-.669-.894-.681-.231-.012-.494-.012-.756-.012s-.694.1-1.056.494c-.363.394-1.387 1.356-1.387 3.306s1.419 3.831 1.619 4.1c.2.262 2.794 4.269 6.769 5.981.944.406 1.681.65 2.256.837.95.3 1.813.256 2.494.156.762-.113 2.344-.956 2.675-1.881s.331-1.719.231-1.881c-.094-.175-.356-.275-.756-.475z"/></symbol><symbol id="icon-telegram" viewBox="0 0 32 32"><path d="M16 0C7.162 0 0 7.162 0 16s7.162 16 16 16 16-7.163 16-16S24.837 0 16 0zm7.863 10.969-2.625 12.369c-.181.881-.712 1.087-1.45.681l-4-2.956-1.919 1.869c-.225.219-.4.4-.8.4-.519 0-.431-.194-.606-.688L11.1 18.169l-3.956-1.231c-.856-.262-.862-.85.194-1.269l15.412-5.95c.7-.319 1.381.169 1.113 1.25z"/></symbol><symbol id="icon-youtube" viewBox="0 0 32 32"><path d="M31.681 9.6s-.313-2.206-1.275-3.175C29.187 5.15 27.825 5.144 27.2 5.069c-4.475-.325-11.194-.325-11.194-.325h-.012s-6.719 0-11.194.325c-.625.075-1.987.081-3.206 1.356C.631 7.394.325 9.6.325 9.6s-.319 2.588-.319 5.181v2.425c0 2.587.319 5.181.319 5.181s.313 2.206 1.269 3.175c1.219 1.275 2.819 1.231 3.531 1.369 2.563.244 10.881.319 10.881.319s6.725-.012 11.2-.331c.625-.075 1.988-.081 3.206-1.356.962-.969 1.275-3.175 1.275-3.175s.319-2.587.319-5.181v-2.425c-.006-2.588-.325-5.181-.325-5.181zM12.694 20.15v-8.994l8.644 4.513-8.644 4.481z"/></symbol></defs></svg>